<?xml version="1.0" standalone="no"?>
<!DOCTYPE svg PUBLIC "-//W3C//DTD SVG 20010904//EN"
 "http://www.w3.org/TR/2001/REC-SVG-20010904/DTD/svg10.dtd">
<svg version="1.0" xmlns="http://www.w3.org/2000/svg"
 width="1200.000000pt" height="742.000000pt" viewBox="0 0 1200.000000 742.000000"
 preserveAspectRatio="xMidYMid meet">
<metadata>
Created by potrace 1.16, written by Peter Selinger 2001-2019
</metadata>
<g transform="translate(0.000000,742.000000) scale(0.100000,-0.100000)"
fill="#000000" stroke="none">
<path d="M486 7408 c-9 -5 -30 -6 -46 -3 -31 7 -42 -8 -15 -19 8 -3 15 -13 15
-22 0 -11 -5 -14 -16 -10 -9 3 -18 6 -20 6 -2 0 -4 8 -4 18 0 14 -10 17 -70
18 -39 1 -70 -3 -70 -7 0 -5 -11 -9 -25 -9 -25 0 -29 -6 -27 -47 1 -16 -5 -23
-18 -23 -23 0 -35 16 -18 23 10 4 10 6 1 6 -19 1 -63 -72 -49 -81 6 -4 -1 -8
-16 -8 -16 0 -28 5 -28 11 0 5 5 7 10 4 6 -3 13 2 17 11 4 10 2 19 -5 22 -21
7 -13 23 18 33 17 6 30 17 30 25 0 8 10 14 23 15 21 0 21 1 2 9 -29 13 -35 12
-35 -5 0 -8 -5 -15 -11 -15 -7 0 -20 -9 -30 -21 -14 -17 -27 -20 -59 -17 l-40
4 0 -128 c0 -70 4 -129 9 -133 5 -3 16 4 24 15 9 13 23 19 38 18 19 -2 23 1
21 16 -2 10 1 15 6 12 6 -3 21 -2 33 3 15 5 35 4 54 -4 16 -7 54 -12 83 -11
28 1 52 -1 52 -4 0 -3 11 -5 25 -5 17 0 25 6 25 18 0 11 8 17 21 17 17 0 19 4
13 22 -6 20 -5 21 10 9 14 -11 16 -11 16 2 0 16 -27 27 -48 19 -10 -3 -10 -7
-1 -18 9 -11 6 -14 -17 -15 -16 -1 -36 -1 -44 0 -8 1 -4 -5 9 -12 17 -10 20
-16 11 -22 -7 -4 -15 -3 -19 2 -6 11 -54 24 -83 24 -10 0 -18 7 -18 15 0 8 4
12 10 9 5 -3 7 0 4 9 -8 22 6 42 17 25 8 -11 11 -11 19 3 6 9 17 15 25 12 10
-4 15 0 15 11 0 11 -5 15 -15 12 -8 -4 -17 -2 -20 3 -4 6 6 11 22 12 46 2 51
3 59 11 4 4 0 7 -9 7 -26 0 -20 13 16 35 31 20 73 23 62 4 -4 -5 -2 -9 4 -9 5
0 12 6 14 13 3 6 6 3 6 -7 1 -11 -18 -37 -41 -58 -37 -33 -39 -38 -20 -38 25
0 64 29 56 42 -3 4 0 8 5 8 6 0 11 -7 11 -15 0 -9 9 -15 21 -15 12 0 36 -13
54 -28 l32 -29 -30 -13 c-30 -13 -30 -13 -8 -22 13 -4 25 -17 28 -28 5 -20 33
-29 33 -10 0 6 6 10 14 10 10 0 12 7 9 21 -5 19 -3 21 21 17 20 -4 24 -2 16 7
-7 8 -4 17 10 30 20 18 21 18 41 -3 11 -12 24 -22 29 -22 15 0 12 -48 -2 -53
-7 -2 1 -2 17 1 17 2 37 11 45 19 13 13 13 16 -4 29 -26 18 -12 18 17 -1 12
-8 32 -12 45 -8 29 7 29 23 0 16 -21 -4 -21 -3 -5 7 14 9 22 9 34 -2 12 -9 15
-9 9 0 -9 15 6 16 21 1 7 -7 24 -1 57 21 25 17 46 34 46 38 0 4 16 12 35 18
33 10 35 10 29 -8 -4 -14 0 -21 14 -25 11 -2 22 -14 25 -25 5 -18 4 -18 -18
-4 -13 9 -26 12 -29 7 -3 -5 1 -11 9 -15 22 -8 18 -23 -7 -31 -21 -7 -20 -8 9
-12 18 -2 41 1 53 7 19 10 19 13 5 33 -25 35 -19 42 33 38 26 -2 41 -6 35 -8
-7 -3 -13 -9 -13 -15 0 -6 -8 -17 -17 -24 -24 -17 -10 -29 16 -14 17 9 21 8
21 -5 0 -9 9 -15 21 -15 15 0 19 -5 15 -15 -3 -8 -1 -15 4 -15 6 0 10 6 10 14
0 19 32 29 67 19 15 -4 36 -6 45 -4 13 1 16 -2 12 -14 -5 -13 -2 -15 21 -9 20
5 26 4 21 -5 -4 -6 -19 -11 -33 -11 -18 0 -24 -4 -20 -15 4 -8 2 -17 -4 -20
-16 -10 1 -25 28 -25 21 0 23 2 13 15 -19 23 -1 39 22 19 16 -15 22 -16 40 -5
16 10 29 10 69 0 43 -11 51 -11 67 4 10 9 29 17 41 17 17 0 22 4 17 16 -4 10
1 25 11 36 17 18 16 19 -11 8 -32 -12 -59 2 -49 26 3 9 -1 14 -12 14 -9 0 -13
-4 -10 -10 3 -5 2 -10 -4 -10 -5 0 -11 5 -13 11 -5 15 -98 2 -98 -13 0 -7 14
-8 40 -4 31 5 40 3 40 -8 0 -20 -90 -14 -121 8 -22 16 -22 17 -3 12 12 -4 34
0 50 9 19 10 23 15 12 15 -10 0 -18 5 -18 10 0 6 5 10 12 10 6 0 3 6 -8 14
-13 10 -23 11 -31 4 -9 -7 -13 -7 -13 1 0 7 -4 10 -9 7 -5 -3 -11 1 -15 9 -6
16 4 20 19 7 6 -5 21 -6 35 -1 24 7 24 7 3 8 -21 1 -27 12 -26 48 1 7 -3 11
-7 8 -16 -10 -22 17 -9 41 14 27 46 32 63 8 13 -17 46 -9 46 11 0 7 6 12 14
11 8 0 14 4 13 9 -1 6 -28 9 -62 8 -51 -2 -63 -6 -82 -28 l-23 -26 0 24 c0 27
-16 37 -62 37 l-30 0 23 -18 c27 -23 20 -52 -13 -52 -22 -1 -22 -1 -4 -15 17
-13 18 -15 3 -15 -9 0 -17 5 -17 10 0 6 -5 10 -11 10 -7 0 -9 -9 -5 -23 4 -17
1 -23 -14 -24 -10 -1 -21 5 -24 14 -4 9 -13 13 -21 9 -9 -3 -18 1 -22 9 -4 12
-9 13 -18 5 -8 -7 -15 -7 -19 -1 -3 5 0 12 6 14 7 3 3 6 -9 6 -12 1 -24 -3
-27 -8 -3 -5 -15 -7 -26 -4 -24 6 -54 -26 -40 -41 6 -6 2 -15 -8 -22 -20 -16
-36 -18 -27 -4 3 6 -1 10 -9 10 -9 0 -16 -7 -16 -15 0 -19 -14 -19 -34 1 -9 9
-16 11 -16 4 0 -6 -4 -9 -9 -5 -11 6 -25 -30 -17 -43 6 -10 -11 -38 -19 -30
-3 3 -7 15 -8 27 -1 12 -5 17 -10 12 -6 -6 -19 -6 -35 0 -13 5 -33 7 -43 4
-14 -5 -19 -1 -19 13 0 23 35 56 49 47 6 -3 11 -1 11 5 0 15 -62 40 -99 40
-16 0 -32 4 -35 9 -11 17 -77 23 -95 8 -16 -14 -71 -32 -71 -23 0 3 16 13 35
22 19 9 32 20 29 25 -3 5 -10 7 -15 3 -6 -3 -13 3 -16 15 -3 12 -9 21 -14 21
-5 0 -6 -6 -3 -14 3 -7 -2 -16 -10 -19 -10 -4 -16 -1 -16 7 0 17 -43 26 -64
14z"/>
<path d="M3001 7396 c-6 -16 -14 -33 -18 -39 -4 -7 0 -8 12 -4 9 4 24 2 31 -4
8 -6 14 -7 14 -2 0 5 12 8 28 7 43 -2 48 -4 32 -14 -11 -7 -3 -8 25 -6 27 2
41 9 43 20 5 23 22 20 22 -5 0 -13 4 -18 12 -13 7 4 8 3 4 -4 -4 -7 -27 -12
-51 -12 -24 0 -46 -4 -49 -8 -2 -4 14 -8 37 -8 23 0 69 -3 102 -6 34 -4 49 -4
35 1 l-25 8 25 7 c14 4 61 9 105 12 44 3 89 6 100 6 11 1 31 -1 45 -6 15 -4
20 -4 12 2 -9 6 -6 12 13 22 30 16 33 30 6 30 -14 0 -18 5 -14 20 5 20 1 20
-243 19 -149 0 -241 -4 -229 -9 11 -5 14 -9 6 -9 -7 -1 -11 -7 -7 -16 3 -9 0
-15 -9 -15 -8 0 -15 7 -15 15 0 8 -6 15 -14 15 -8 0 -16 6 -19 13 -3 6 -10 -1
-16 -17z"/>
<path d="M11688 7379 c-4 -42 5 -59 19 -35 6 9 15 11 30 5 19 -7 21 -14 18
-50 -5 -42 -19 -68 -31 -57 -3 4 -1 15 5 26 14 26 14 62 0 62 -5 0 -9 -10 -7
-22 2 -11 -3 -23 -9 -25 -7 -3 -13 3 -13 12 0 22 -32 54 -38 37 -2 -6 -18 -12
-35 -12 -24 0 -28 3 -19 12 15 15 16 48 2 48 -5 0 -10 -4 -10 -10 0 -5 -7 -10
-15 -10 -8 0 -15 -4 -15 -10 0 -5 5 -10 11 -10 5 0 7 -4 4 -10 -3 -5 -1 -10 4
-10 6 0 11 -4 11 -10 0 -5 -8 -10 -17 -10 -14 0 -14 -3 -5 -12 10 -10 14 -10
21 0 10 16 58 25 66 12 3 -5 -1 -10 -10 -10 -8 0 -21 -11 -27 -25 -6 -14 -14
-25 -17 -25 -4 0 -7 -9 -8 -19 -2 -23 24 -31 57 -18 l25 9 -28 12 c-31 14 -26
26 10 26 18 0 23 -6 23 -24 0 -14 -6 -31 -14 -38 -28 -29 34 -69 74 -48 16 9
20 8 20 -5 0 -8 5 -15 10 -15 6 0 10 -5 10 -11 0 -6 -8 -9 -19 -6 -10 2 -29
-4 -42 -14 l-24 -19 28 0 c15 0 27 5 27 11 0 5 5 7 11 3 6 -3 8 -15 6 -26 -4
-14 0 -22 13 -25 10 -3 21 -14 24 -26 3 -12 8 -18 12 -14 4 3 1 20 -6 37 -7
17 -10 33 -7 37 9 8 37 -17 37 -33 0 -20 18 -17 23 4 4 14 6 14 12 -5 4 -13
14 -23 22 -23 8 0 11 5 7 11 -5 9 4 10 31 5 27 -5 40 -4 46 6 5 7 9 97 9 200
l0 188 -112 -1 c-62 0 -120 -5 -130 -10 -12 -6 -18 -6 -18 1 0 5 -11 10 -24
10 -21 0 -24 -6 -28 -41z"/>
<path d="M1587 6094 c-3 -4 0 -16 8 -28 19 -26 19 -37 0 -30 -8 4 -21 1 -28
-5 -10 -8 -19 -6 -35 9 -12 11 -25 20 -31 20 -5 0 -12 6 -15 13 -3 6 -4 0 -1
-14 6 -31 -3 -43 -22 -28 -10 9 -13 8 -13 -5 0 -9 -4 -16 -10 -16 -5 0 -10 7
-10 15 0 8 -9 15 -20 15 -11 0 -20 -4 -20 -10 0 -5 7 -10 16 -10 14 0 14 -3 4
-15 -11 -13 -8 -15 21 -16 19 0 28 -3 21 -6 -9 -3 -4 -10 13 -19 34 -18 36
-18 29 4 -4 12 -3 13 3 4 6 -7 18 -10 29 -6 17 6 17 5 3 -7 -17 -14 -33 -73
-18 -63 5 3 10 -5 10 -18 1 -17 3 -18 6 -5 4 16 33 25 33 10 0 -5 16 -21 35
-36 33 -26 35 -27 35 -7 0 11 -7 20 -15 20 -8 0 -15 5 -15 11 0 5 -13 15 -30
20 -26 9 -28 14 -19 31 8 16 13 17 25 7 12 -10 12 -14 2 -20 -10 -7 -10 -9 1
-9 8 0 19 -8 26 -17 10 -14 16 -15 27 -5 8 6 18 9 21 5 4 -3 7 1 7 10 0 20 12
21 59 5 41 -15 74 -44 66 -58 -9 -15 -25 -12 -25 5 0 21 -26 19 -50 -5 -19
-19 -19 -20 0 -30 25 -13 50 -13 50 1 0 8 11 9 33 5 24 -4 28 -3 17 5 -12 8
-9 10 12 6 19 -3 25 0 21 10 -3 7 -14 13 -24 13 -34 0 -23 37 12 44 62 12 75
3 43 -29 -19 -19 -11 -33 9 -17 10 9 17 8 25 0 9 -9 12 -9 12 -1 0 6 -6 14
-12 16 -20 9 10 26 34 19 15 -3 18 -10 14 -27 -5 -21 -4 -22 18 -12 20 10 22
15 14 39 -6 15 -14 25 -19 22 -6 -3 -19 6 -30 20 -12 15 -31 26 -44 26 -29 0
-42 17 -18 23 15 4 15 5 -2 6 -12 0 -26 -4 -33 -11 -7 -7 -12 -8 -12 -2 0 6 5
15 10 20 13 13 2 44 -15 44 -7 0 -23 8 -36 19 -23 17 -55 18 -44 1 3 -5 13 -6
23 -3 15 6 15 5 3 -10 -17 -22 -41 -22 -41 -1 0 10 -6 14 -15 11 -8 -4 -17 -2
-21 4 -3 6 -13 8 -21 5 -24 -10 -64 5 -72 26 -4 10 -10 16 -14 12z"/>
<path d="M11975 5671 c3 -5 -3 -12 -12 -14 -10 -2 -8 -3 5 -2 20 2 22 -2 21
-39 -2 -28 -3 -32 -6 -15 -3 20 -10 27 -29 27 -13 0 -24 -4 -24 -9 0 -5 7 -9
15 -9 8 0 15 -6 15 -14 0 -9 -7 -12 -20 -9 -12 3 -20 0 -20 -6 0 -8 -5 -9 -16
-3 -9 5 -24 7 -34 5 -9 -2 -22 3 -29 11 -17 21 -35 21 -27 0 3 -8 2 -12 -4 -9
-6 3 -10 1 -10 -4 0 -6 5 -11 10 -11 6 0 10 -4 10 -9 0 -5 -18 -8 -40 -8 -25
1 -40 7 -40 15 0 7 4 11 9 7 5 -3 13 0 17 6 5 9 -3 10 -31 6 -21 -3 -42 -12
-47 -19 -6 -10 -8 -10 -8 0 0 6 -11 12 -25 12 -18 0 -25 5 -25 20 0 11 -4 20
-10 20 -5 0 -10 -9 -10 -20 0 -11 -4 -20 -10 -20 -5 0 -7 -7 -3 -17 7 -17 8
-17 -57 3 -12 4 -20 2 -20 -5 0 -6 14 -14 32 -19 39 -10 47 -28 16 -37 -13 -4
-26 -13 -30 -19 -10 -15 -20 -2 -22 28 -1 21 -6 26 -26 26 l-25 1 24 13 24 13
-29 7 c-22 6 -31 3 -46 -16 -15 -19 -18 -20 -18 -5 0 26 -20 21 -20 -5 -1 -21
-2 -21 -11 -5 -6 10 -8 25 -5 33 7 19 -18 18 -34 -1 -7 -8 -16 -13 -20 -10
-14 9 -20 -11 -14 -43 5 -22 15 -34 38 -43 77 -29 85 -34 73 -41 -6 -4 -22 -1
-34 7 -25 17 -46 0 -22 -17 12 -8 11 -9 -1 -5 -8 2 -15 10 -15 18 0 18 -25 38
-47 39 -14 0 -18 8 -18 35 0 19 -4 35 -10 35 -5 0 -7 -13 -3 -31 5 -25 2 -31
-16 -36 -11 -3 -21 -11 -21 -18 0 -14 -28 -24 -47 -18 -18 7 -16 33 3 33 8 0
13 4 10 8 -3 5 6 19 20 31 14 12 22 26 19 31 -9 14 -37 12 -33 -2 5 -15 -22
-48 -39 -48 -7 0 -12 -5 -11 -12 2 -6 -6 -14 -17 -16 -16 -4 -17 -2 -7 11 12
14 7 15 -42 14 -44 -1 -53 -4 -44 -14 6 -7 17 -13 24 -13 8 0 14 -4 14 -10 0
-18 -31 -10 -55 14 -21 21 -29 23 -57 15 -42 -12 -43 -12 -28 6 10 12 7 13
-19 5 -19 -5 -29 -5 -26 1 4 5 0 10 -7 10 -7 1 -25 3 -40 5 -29 3 -37 -13 -17
-33 13 -13 -48 -43 -88 -42 -22 0 -24 2 -10 8 17 6 17 8 -6 18 -22 10 -24 10
-20 -8 6 -23 -10 -25 -31 -4 -19 19 -52 9 -35 -11 15 -18 2 -18 -16 0 -8 7
-11 16 -8 20 4 3 1 6 -5 6 -7 0 -12 -4 -12 -10 0 -5 -5 -10 -11 -10 -5 0 -8 4
-4 9 3 5 0 13 -6 16 -6 4 -13 -2 -16 -14 -3 -11 -9 -18 -14 -15 -5 3 -9 -2 -9
-11 0 -8 7 -18 15 -21 23 -9 18 -26 -7 -22 -13 2 -22 9 -21 16 2 6 -2 12 -7
12 -14 0 -13 -23 2 -38 9 -9 7 -12 -10 -12 -12 0 -22 5 -22 10 0 6 -5 10 -11
10 -7 0 -8 -7 -4 -17 15 -35 17 -63 6 -63 -6 0 -11 9 -11 20 0 18 -11 25 -34
21 -5 -1 -16 1 -24 4 -11 4 -12 8 -2 20 10 12 9 16 -4 21 -30 12 -16 25 22 20
l37 -6 -33 12 c-28 10 -36 9 -50 -7 -13 -13 -14 -19 -4 -22 15 -6 16 -30 1
-35 -7 -2 -7 -11 0 -28 7 -18 10 -20 10 -7 1 13 10 17 37 17 38 0 39 -20 1
-20 -21 -1 -20 -2 4 -15 28 -15 46 -45 28 -45 -6 0 -8 -4 -5 -8 3 -5 -7 -15
-22 -22 -15 -6 -45 -21 -68 -33 -28 -13 -50 -18 -68 -13 -23 6 -25 5 -15 -7 8
-8 28 -13 47 -11 19 1 32 -2 30 -8 -2 -5 -7 -9 -11 -9 -3 0 -20 -4 -37 -9 -23
-7 -30 -5 -30 6 0 20 -23 17 -49 -7 -24 -23 -23 -46 3 -41 9 2 16 0 16 -4 0
-14 -36 -33 -62 -34 -15 0 -30 -4 -33 -10 -3 -5 -15 -10 -26 -10 -10 0 -19 -5
-19 -12 0 -9 -3 -9 -12 0 -17 17 -55 15 -62 -4 -8 -22 -9 -21 19 -26 26 -5 36
16 13 25 -10 4 -10 6 -1 6 6 1 15 -3 18 -9 3 -5 15 -10 26 -10 11 0 17 5 14
10 -3 6 -1 10 4 10 6 0 11 -10 11 -22 0 -17 3 -20 9 -9 6 8 18 12 31 8 13 -3
29 0 37 9 13 12 12 14 -4 12 -10 -2 -19 2 -20 7 -2 11 16 10 70 -7 25 -7 36
-16 33 -25 -3 -7 -1 -13 4 -13 6 0 10 10 10 21 0 16 5 20 20 16 15 -4 20 -1
18 10 -2 8 7 19 20 24 21 8 23 6 17 -14 -4 -15 -4 -18 3 -8 6 7 15 10 22 6 9
-5 10 -1 5 16 -6 20 -5 22 6 12 18 -18 29 -16 29 3 0 9 -9 18 -20 21 -11 3
-17 9 -14 14 3 5 -2 9 -10 9 -9 0 -16 4 -16 9 0 5 11 9 25 9 13 0 22 -4 20 -8
-10 -16 27 -20 42 -5 12 12 18 13 29 4 29 -24 60 31 32 59 -9 9 -8 12 6 12 9
0 14 -4 11 -10 -4 -6 5 -10 19 -10 14 0 25 5 23 11 -1 6 3 13 10 16 7 2 11 -4
10 -16 -1 -12 -8 -21 -18 -21 -19 0 -73 -76 -60 -84 5 -3 11 0 14 8 3 7 20 22
39 33 27 16 36 17 45 7 9 -9 7 -13 -8 -17 -12 -3 -17 -11 -13 -21 7 -19 -7
-21 -25 -3 -11 10 -12 5 -7 -26 4 -21 10 -46 13 -55 4 -15 3 -15 -7 -2 -9 12
-10 7 -6 -25 3 -22 3 -34 -1 -26 -4 10 -9 7 -17 -12 -10 -24 -12 -25 -36 -11
-15 8 -18 13 -8 12 9 -2 18 2 20 7 2 6 -14 10 -34 11 -21 1 -38 -3 -38 -7 0
-5 5 -9 12 -9 6 0 8 -3 4 -7 -4 -4 -15 3 -25 16 -12 16 -21 20 -25 12 -4 -6
-2 -11 4 -11 6 0 8 -5 5 -10 -5 -8 -11 -8 -19 -1 -7 6 -22 7 -35 4 l-23 -6 21
-12 c21 -11 21 -12 5 -26 -16 -13 -17 -12 -11 5 7 17 3 18 -34 13 -36 -5 -38
-4 -22 9 26 19 2 17 -26 -3 -19 -13 -28 -14 -43 -4 -24 15 -41 5 -33 -20 6
-18 5 -19 -14 -7 -11 7 -20 19 -18 27 1 8 -4 16 -10 18 -7 3 -13 -2 -13 -11 0
-9 -4 -16 -10 -16 -5 0 -10 9 -10 21 0 19 -1 18 -24 -5 -22 -25 -54 -37 -41
-16 3 6 -1 10 -10 10 -8 0 -18 -7 -21 -15 -4 -8 -10 -12 -16 -9 -5 4 -5 11 1
18 11 13 5 26 -10 26 -5 0 -6 -6 -3 -14 10 -26 -17 -29 -49 -6 -23 18 -29 19
-24 7 4 -11 1 -17 -9 -17 -8 0 -17 7 -20 15 -5 13 -8 13 -21 -1 -14 -14 -17
-12 -34 16 -20 32 -14 63 13 72 10 4 9 9 -2 21 -27 30 -37 43 -43 57 -4 12 -6
11 -6 -3 -1 -16 -3 -16 -25 -2 -13 8 -31 13 -40 9 -11 -4 -16 -1 -16 10 0 9
10 20 22 25 12 4 17 11 11 14 -15 9 -47 -29 -40 -48 4 -8 14 -15 24 -15 10 0
28 -11 41 -25 22 -23 22 -24 4 -34 -13 -7 -22 -7 -30 1 -5 5 -16 7 -23 2 -19
-11 -69 -15 -69 -5 0 5 -14 11 -32 13 -24 4 -37 -1 -55 -18 -13 -13 -29 -22
-36 -19 -6 2 -24 6 -39 9 -16 4 -28 13 -28 21 0 20 -17 19 -29 -2 -6 -10 -11
-12 -11 -5 0 6 -11 12 -24 12 -13 0 -27 -6 -30 -12 -3 -7 -4 -1 -1 15 3 15 1
27 -4 27 -5 0 -12 13 -16 28 -4 19 -12 28 -25 28 -20 0 -28 -22 -10 -28 6 -2
6 -8 0 -18 -8 -13 -10 -12 -10 3 0 9 -4 17 -10 17 -5 0 -10 -6 -10 -13 0 -9
-15 -12 -50 -10 -46 3 -67 -9 -37 -20 7 -4 6 -6 -4 -6 -22 -1 -33 -30 -14 -37
24 -9 65 5 65 22 0 8 5 12 10 9 17 -10 12 -20 -20 -38 -23 -14 -34 -15 -50 -7
-16 9 -18 8 -14 -5 4 -8 1 -15 -5 -15 -6 0 -11 5 -11 10 0 16 -30 11 -59 -9
-17 -12 -36 -18 -49 -14 -17 4 -22 0 -28 -21 -7 -27 -38 -36 -48 -13 -4 8 -8
8 -11 2 -3 -6 -21 -9 -40 -7 -44 5 -56 34 -26 66 20 21 20 22 1 34 -24 14 -26
32 -5 32 8 0 15 -6 15 -14 0 -10 7 -12 22 -8 17 4 20 2 15 -11 -4 -11 -1 -17
8 -17 8 0 15 9 15 20 0 11 5 20 11 20 6 0 9 -7 5 -15 -7 -19 2 -19 34 1 24 14
24 15 3 11 -13 -3 -23 -1 -23 4 0 15 38 29 88 32 50 3 97 29 105 59 5 19 -10
38 -32 38 -12 1 -10 6 8 20 13 11 27 20 32 20 16 0 60 -48 49 -55 -5 -3 -10
-11 -10 -17 0 -6 8 -4 18 5 12 11 22 13 35 6 13 -8 17 -6 17 6 0 18 16 20 23
3 4 -10 7 -10 18 0 11 10 11 12 -1 12 -11 0 -11 3 -2 12 13 13 -12 37 -40 38
-19 0 -26 20 -7 20 5 0 8 4 5 9 -3 4 6 6 21 3 16 -3 29 0 34 10 7 12 15 13 43
4 21 -6 35 -17 34 -26 -3 -34 3 -60 12 -60 5 0 9 10 7 22 -2 19 4 22 41 25 25
1 42 -2 42 -8 0 -6 7 -9 15 -5 10 3 15 -1 15 -13 0 -10 6 -21 13 -24 10 -4 13
2 9 19 -3 15 0 24 8 24 8 0 10 8 7 21 -3 12 0 22 9 26 23 9 16 23 -11 23 -14
0 -25 5 -25 10 0 6 7 10 16 10 13 0 15 6 8 38 -4 20 -8 51 -9 67 -1 24 -7 30
-26 32 -13 1 -18 0 -11 -3 17 -8 5 -24 -19 -24 -13 0 -18 -4 -13 -12 5 -8 2
-9 -11 -4 -10 4 -28 0 -41 -9 -21 -14 -24 -14 -24 0 0 22 -23 19 -38 -5 -18
-29 -40 -26 -34 5 3 18 0 25 -12 25 -10 0 -13 -6 -10 -15 5 -11 -1 -15 -20
-15 -33 0 -34 -18 0 -30 14 -6 22 -14 19 -20 -9 -14 -32 -12 -38 3 -2 6 -4 0
-4 -15 0 -18 4 -25 13 -21 18 7 18 -5 -1 -23 -12 -13 -16 -11 -32 13 -20 31
-35 44 -42 37 -3 -3 1 -9 9 -14 11 -7 8 -15 -14 -44 -28 -38 -23 -51 7 -16 18
21 37 26 37 10 0 -5 -5 -10 -12 -10 -6 0 -8 -3 -5 -6 7 -8 -36 -44 -52 -44 -6
0 -11 7 -11 15 0 9 -9 15 -21 15 -11 0 -27 -7 -35 -15 -9 -8 -30 -15 -47 -14
-30 0 -31 1 -9 11 25 13 30 31 5 21 -11 -4 -14 -3 -9 5 4 7 17 12 29 12 21 1
22 1 3 15 -24 18 -12 34 13 18 13 -8 21 -9 29 -1 8 8 15 8 26 -1 11 -9 20 -10
35 -1 12 6 21 13 21 16 0 3 -5 2 -10 -1 -6 -4 -18 -1 -26 6 -8 6 -33 13 -56
16 -23 2 -43 5 -45 6 -1 2 6 20 17 40 16 29 17 37 6 37 -8 0 -16 -6 -19 -12
-6 -16 -14 -9 -19 17 -2 16 3 20 29 20 42 0 50 11 28 35 -22 25 -26 25 -51 2
-11 -10 -25 -17 -32 -14 -15 5 -16 -14 0 -24 8 -5 6 -11 -6 -20 -11 -8 -13
-14 -7 -19 6 -3 11 -10 11 -16 0 -14 -28 -11 -33 4 -2 6 -8 8 -13 4 -5 -4 -2
-12 6 -17 8 -5 11 -12 7 -17 -5 -4 -13 -1 -18 7 -8 12 -12 12 -16 2 -2 -7 -11
-18 -18 -26 -8 -7 -11 -23 -8 -35 4 -17 2 -20 -11 -15 -24 9 -20 37 9 62 14
12 25 27 25 33 0 20 -21 50 -31 43 -6 -4 -6 -11 2 -21 10 -12 10 -16 -2 -23
-10 -7 -15 -5 -17 6 -3 12 -7 13 -18 3 -10 -8 -14 -8 -14 0 0 6 -7 11 -16 11
-10 0 -14 -6 -10 -15 6 -18 -3 -19 -40 -5 -19 8 -30 8 -38 0 -5 -5 -21 -10
-34 -10 -13 0 -21 -4 -18 -9 8 -12 -13 -27 -49 -35 -18 -4 -25 -3 -17 2 9 6 2
9 -20 9 -18 0 -25 -2 -15 -4 31 -8 18 -22 -28 -29 -25 -3 -45 -11 -45 -16 0
-10 19 -8 84 8 22 5 27 4 24 -7 -3 -8 -17 -13 -32 -12 -20 1 -26 -3 -26 -18 0
-11 -7 -19 -16 -19 -8 0 -12 5 -9 10 3 6 3 10 -2 11 -4 0 -19 2 -33 3 -33 4
-60 -13 -52 -33 5 -14 2 -13 -21 2 -34 22 -65 24 -47 2 7 -8 16 -12 21 -9 5 3
16 -2 25 -10 8 -9 11 -16 6 -16 -5 0 -12 -9 -15 -20 -3 -11 -10 -20 -15 -20
-13 0 -42 28 -42 41 0 12 17 12 25 -1 8 -12 25 -13 25 -1 0 13 -43 22 -54 11
-15 -15 -26 -12 -26 5 0 8 -4 15 -10 15 -5 0 -10 -7 -10 -15 0 -8 5 -15 10
-15 6 0 10 -7 10 -15 0 -8 -4 -15 -10 -15 -5 0 -10 5 -10 11 0 17 -24 36 -39
31 -8 -3 -12 1 -9 9 3 8 9 14 14 14 5 1 24 9 42 18 18 10 42 15 52 12 21 -7
25 5 21 53 -1 12 3 22 8 22 5 0 17 3 27 7 12 4 15 3 10 -5 -4 -7 -3 -12 3 -12
5 0 13 5 16 10 5 8 12 7 23 -2 14 -10 15 -10 5 2 -7 8 -13 22 -13 32 0 19 -15
24 -25 8 -3 -5 -12 -10 -18 -10 -7 0 -6 4 3 10 21 13 9 19 -20 8 -19 -7 -22
-11 -10 -18 11 -7 8 -11 -14 -21 -24 -11 -30 -11 -41 4 -16 22 -48 22 -81 1
-19 -13 -28 -14 -37 -5 -18 18 -24 13 -19 -18 2 -16 -1 -32 -7 -35 -7 -4 -11
1 -11 12 0 23 -29 37 -44 22 -8 -8 -6 -9 5 -5 24 9 33 -55 11 -72 -10 -7 -22
-16 -28 -22 -6 -5 -23 -7 -37 -4 -28 6 -33 -2 -18 -26 8 -12 13 -12 36 3 34
22 48 11 17 -14 -17 -14 -32 -17 -59 -13 -29 5 -35 3 -31 -9 4 -8 -3 -20 -15
-28 -15 -9 -22 -10 -25 -1 -2 6 -10 11 -18 11 -8 0 -14 5 -14 10 0 6 7 10 15
10 8 0 15 -4 15 -10 0 -5 7 -10 16 -10 11 0 14 5 10 17 -4 10 2 25 15 40 13
12 17 23 11 23 -7 0 -12 -5 -12 -11 0 -5 -5 -7 -12 -3 -7 4 -8 3 -4 -4 4 -7 1
-13 -6 -14 -14 -1 -28 -4 -40 -8 -5 -1 -13 -3 -19 -4 -6 0 -17 -10 -25 -20
-12 -17 -12 -22 3 -38 14 -16 14 -18 1 -18 -9 0 -18 9 -21 20 -3 11 -13 20
-22 20 -12 0 -15 -5 -10 -20 5 -14 2 -20 -10 -20 -9 0 -13 -4 -10 -10 3 -5 -1
-10 -9 -10 -9 0 -16 -9 -16 -20 0 -22 25 -28 33 -7 4 7 6 6 6 -4 1 -9 11 -20
24 -24 20 -6 20 -8 3 -12 -10 -3 -21 -1 -25 4 -7 10 -32 10 -47 1 -20 -13 -52
4 -64 33 -14 33 -14 33 -41 19 -13 -7 -19 -7 -19 0 0 5 -4 10 -10 10 -5 0 -10
-9 -10 -20 0 -15 -6 -19 -25 -18 -13 1 -27 9 -30 17 -4 11 -11 6 -26 -18 -15
-24 -23 -31 -31 -23 -8 8 -8 16 2 27 17 20 5 32 -15 15 -9 -7 -19 -9 -23 -5
-4 4 -1 10 6 12 6 3 12 11 12 19 0 10 -6 8 -22 -8 l-21 -21 24 -20 c24 -19 24
-20 2 -13 -30 9 -54 -4 -27 -15 16 -6 15 -8 -8 -8 -19 -1 -28 4 -28 14 0 8 5
15 10 15 19 0 10 16 -21 39 -30 23 -31 23 -24 2 6 -21 -4 -28 -19 -13 -4 4
-19 7 -32 7 -18 1 -23 -3 -19 -15 3 -9 -2 -25 -10 -36 -8 -10 -15 -27 -15 -36
0 -19 -30 -26 -30 -7 0 5 -5 7 -11 3 -8 -4 -7 -9 2 -15 7 -4 10 -11 6 -15 -3
-4 -14 -1 -23 7 -13 11 -18 11 -21 2 -3 -7 -9 -13 -14 -13 -6 0 -9 6 -8 13 4
35 -2 47 -26 47 -21 0 -25 5 -25 31 0 18 -4 28 -10 24 -6 -4 -8 -15 -5 -25 3
-10 1 -21 -5 -25 -6 -4 -10 9 -10 34 0 37 2 41 23 37 13 -2 22 -10 22 -21 0
-10 9 -19 20 -21 11 -2 24 -9 30 -17 5 -7 21 -16 34 -20 16 -4 21 -3 14 4 -7
7 -6 20 4 40 15 30 9 55 -6 30 -8 -12 -11 -12 -24 0 -13 12 -13 16 1 32 21 24
12 29 -26 15 -41 -16 -54 -2 -20 23 18 13 24 25 21 39 -4 16 -2 19 11 14 11
-4 16 -1 16 11 0 11 5 15 16 11 9 -3 12 -2 9 5 -4 6 -13 8 -21 5 -7 -3 -16 -1
-19 4 -3 4 -1 10 5 12 5 1 7 13 4 26 -7 23 -44 32 -44 10 -1 -7 -7 -2 -15 12
-14 25 -14 25 -15 -16 0 -22 5 -45 12 -52 20 -20 0 -27 -22 -7 -16 14 -22 15
-34 5 -10 -8 -29 -10 -57 -5 -29 5 -40 4 -35 -4 4 -6 19 -11 33 -11 18 0 24
-4 19 -15 -3 -9 0 -15 10 -15 10 0 14 6 10 15 -3 8 -1 15 4 15 6 0 10 -7 10
-15 0 -7 7 -18 15 -22 12 -7 13 -16 4 -46 -5 -20 -14 -37 -20 -37 -5 0 -9 -6
-8 -12 1 -7 -1 -21 -4 -30 -4 -10 -9 -25 -12 -33 -6 -21 -22 -19 -28 5 -3 12
-14 20 -27 20 -13 0 -20 -5 -17 -12 2 -7 10 -12 16 -11 6 2 11 -3 11 -11 0
-11 -6 -12 -28 -4 -23 9 -28 16 -24 35 2 13 11 23 21 23 9 0 22 5 29 12 9 9
12 9 12 0 0 -7 7 -12 15 -12 17 0 20 16 5 25 -6 4 -8 10 -5 15 3 5 0 12 -6 16
-8 4 -7 9 2 15 7 4 11 10 9 13 -3 2 -14 -2 -24 -10 -16 -11 -17 -16 -6 -29 10
-12 10 -15 -4 -15 -9 0 -16 5 -16 10 0 6 -7 10 -15 10 -8 0 -15 -7 -15 -15 0
-8 -4 -15 -10 -15 -5 0 -10 5 -10 11 0 14 -55 69 -69 69 -6 0 -8 6 -5 14 3 8
1 17 -5 20 -5 4 -12 -3 -16 -14 -3 -11 -15 -20 -25 -20 -20 0 -34 29 -35 70 0
19 -6 26 -24 28 -34 5 -51 -15 -22 -26 20 -7 21 -9 7 -21 -14 -12 -20 -10 -42
13 -23 22 -24 26 -9 26 10 0 16 2 14 5 -3 2 -22 2 -43 -2 -26 -4 -35 -10 -32
-19 4 -10 -3 -14 -19 -14 -33 0 -33 -28 1 -40 37 -15 46 -12 39 10 -4 14 -2
20 9 20 8 0 18 -9 21 -20 3 -11 11 -20 16 -20 20 0 -47 -47 -73 -52 -22 -4
-28 -1 -28 12 0 10 -6 18 -12 17 -51 -2 -60 3 -56 28 6 29 2 31 -18 11 -11
-11 -11 -16 -1 -19 9 -4 8 -6 -2 -6 -11 -1 -11 -4 -1 -16 10 -12 9 -15 -4 -15
-13 0 -16 -5 -11 -20 5 -16 2 -20 -15 -20 -12 0 -19 -4 -15 -9 9 -15 -11 -22
-37 -12 -12 6 -17 10 -9 10 21 1 -7 31 -30 31 -12 0 -16 5 -13 15 9 23 -11 18
-45 -12 -36 -32 -39 -43 -11 -43 11 0 25 -9 32 -20 7 -11 20 -20 29 -20 13 0
16 -6 12 -21 -5 -19 -4 -20 16 -10 12 7 27 9 33 5 7 -4 8 -3 4 4 -4 7 -3 12 3
12 5 0 13 -4 16 -10 7 -11 55 -9 55 2 0 4 18 8 40 8 53 0 51 18 -2 23 -37 3
-35 4 15 5 32 1 57 -2 57 -8 0 -5 4 -10 9 -10 4 0 8 15 7 33 -2 52 34 71 89
47 18 -8 17 -9 -7 -9 -15 -1 -30 -6 -33 -11 -4 -7 2 -9 19 -4 20 5 26 2 26
-11 0 -21 -52 -17 -62 5 -5 11 -7 9 -7 -7 -1 -29 9 -34 76 -35 47 -2 58 1 64
18 7 18 7 18 14 1 4 -10 11 -14 14 -9 10 15 49 24 56 12 3 -5 -1 -10 -10 -10
-9 0 -13 -5 -10 -10 4 -7 17 -4 35 7 33 19 42 16 34 -13 -4 -15 -14 -20 -40
-21 -19 -1 -41 -7 -49 -13 -10 -8 -15 -9 -15 -2 0 13 -36 13 -72 0 -31 -11
-34 -18 -16 -36 20 -20 40 -15 33 10 -6 18 -4 20 11 13 11 -4 25 -8 31 -8 10
0 10 -3 0 -15 -9 -12 -9 -16 1 -19 18 -7 15 -27 -8 -41 -22 -14 -27 -3 -7 17
10 10 8 11 -8 5 -11 -4 -26 -12 -34 -18 -12 -9 -13 -8 -8 7 3 9 2 17 -4 17 -6
0 -13 -9 -16 -20 -7 -26 -23 -26 -30 0 -4 16 -8 18 -19 9 -11 -9 -14 -8 -15 2
0 8 -5 3 -10 -10 -7 -18 -12 -21 -22 -12 -14 11 -87 12 -87 1 0 -15 14 -19 27
-9 9 9 13 8 13 0 0 -6 9 -11 20 -11 10 0 23 -7 28 -16 11 -19 32 -10 32 13 0
12 7 9 25 -11 31 -34 32 -46 1 -46 -33 0 -40 -15 -19 -40 22 -25 33 -26 33 0
0 11 6 20 13 20 8 0 22 9 32 20 10 11 14 20 9 20 -13 0 19 20 33 20 21 0 1
-40 -23 -46 -25 -6 -33 -24 -11 -24 8 0 8 -3 -2 -9 -8 -5 -21 -7 -30 -4 -14 4
-14 3 -1 -6 13 -10 13 -12 0 -21 -13 -8 -13 -10 2 -10 9 0 18 6 21 13 3 9 9 9
26 -1 16 -9 27 -10 41 -2 11 6 47 13 81 15 33 2 68 10 76 17 15 11 16 11 10
-6 -8 -19 0 -19 62 0 15 4 22 3 18 -3 -3 -5 0 -10 8 -10 8 0 15 3 15 7 0 8
105 4 140 -5 17 -5 21 -4 11 3 -11 8 -11 10 0 15 12 5 12 7 0 15 -12 9 -12 13
-2 26 15 18 51 22 51 6 0 -5 14 -7 30 -5 17 3 44 7 61 10 27 4 30 3 24 -16 -5
-16 -3 -20 6 -17 8 3 13 15 12 27 -2 11 1 21 6 21 13 0 24 -34 12 -38 -8 -3
-7 -10 0 -24 10 -18 9 -20 -7 -13 -43 17 -52 17 -51 -2 2 -18 0 -18 -60 -9
-12 2 -21 -2 -20 -8 1 -6 -9 -10 -24 -8 -14 2 -31 -4 -39 -12 -7 -9 -28 -16
-46 -16 -19 0 -34 -5 -34 -11 0 -14 26 -39 40 -39 7 0 9 -7 6 -16 -3 -9 -6
-18 -6 -21 0 -3 -7 0 -15 7 -8 7 -15 19 -15 27 0 8 -4 11 -10 8 -5 -3 -10 0
-10 8 0 14 -28 27 -57 27 -25 0 -12 -19 15 -22 33 -4 32 -16 -2 -37 -23 -14
-28 -14 -36 -2 -7 12 -14 13 -34 3 -21 -9 -27 -9 -35 6 -10 16 -10 16 -11 0 0
-10 -8 -18 -17 -19 -13 0 -11 -3 6 -10 13 -5 38 -7 56 -3 19 3 35 1 39 -5 4
-6 16 -11 26 -11 21 0 28 -15 22 -48 -4 -21 -9 -23 -34 -18 -20 4 -35 1 -45
-9 -17 -17 -73 -20 -73 -4 0 6 9 8 20 4 11 -4 20 -2 20 4 0 18 -52 26 -64 10
-7 -9 -31 -14 -63 -15 -45 0 -51 2 -40 14 10 13 6 14 -30 10 -51 -7 -67 7 -19
16 19 4 39 13 46 21 9 11 17 12 31 5 26 -14 69 -2 69 20 0 18 -3 18 -80 23
-33 1 -35 0 -33 -27 l2 -28 -26 29 c-15 17 -23 21 -20 11 4 -12 1 -18 -8 -18
-8 0 -15 6 -15 14 0 13 -29 13 -70 0 -13 -5 -13 -6 0 -15 15 -11 2 -9 -50 7
-15 5 -20 2 -20 -11 0 -11 5 -15 19 -10 22 7 71 -10 71 -25 0 -5 -7 -10 -16
-10 -8 0 -12 -4 -9 -10 3 -5 2 -10 -4 -10 -5 0 -13 5 -16 10 -10 16 -25 12
-19 -5 4 -9 0 -15 -10 -15 -9 0 -15 6 -13 13 1 7 -7 12 -20 11 -12 0 -20 3
-17 8 8 13 -14 9 -49 -8 l-32 -15 29 26 c30 27 29 43 -1 30 -10 -5 -24 -7 -32
-6 -7 1 -26 -3 -42 -10 -22 -8 -32 -9 -43 0 -22 19 -87 17 -98 -3 -6 -11 -16
-15 -30 -10 -11 3 -31 0 -44 -7 -19 -10 -29 -10 -51 1 -16 7 -38 15 -50 17
-25 4 -42 -15 -19 -22 9 -3 24 -8 34 -12 24 -9 65 -11 77 -3 16 10 55 10 55
-1 0 -5 5 -9 11 -9 5 0 8 4 4 10 -3 5 7 16 22 24 26 13 30 12 52 -5 l23 -19
-37 0 c-28 0 -36 -3 -32 -14 4 -9 -2 -17 -12 -21 -13 -4 -17 -12 -14 -25 3
-11 9 -20 14 -20 5 0 6 7 2 16 -5 14 -1 15 28 9 18 -4 41 -12 50 -18 13 -8 25
-7 45 2 24 10 26 10 15 -3 -16 -20 1 -29 33 -16 21 8 29 6 44 -10 21 -23 112
-40 112 -21 0 6 -6 11 -12 12 -7 0 7 6 32 14 25 7 55 16 68 20 18 6 22 4 22
-14 0 -13 -4 -19 -10 -16 -6 4 -8 11 -5 16 8 12 -6 11 -25 -1 -11 -7 -11 -10
-2 -10 7 0 23 -11 35 -24 28 -29 87 -26 87 5 0 12 7 19 20 19 11 0 20 -4 20
-10 0 -5 -5 -10 -10 -10 -6 0 -10 -6 -9 -12 1 -7 -3 -25 -9 -40 -9 -22 -20
-28 -57 -34 -32 -4 -43 -9 -34 -15 12 -7 11 -9 0 -9 -8 0 -25 10 -37 21 -22
20 -24 20 -40 5 -11 -12 -25 -15 -42 -11 -53 13 -122 16 -122 6 0 -6 7 -11 15
-11 21 0 19 -36 -2 -45 -17 -6 -17 -7 1 -21 11 -8 28 -12 38 -8 19 6 23 -3 10
-21 -12 -18 -61 -35 -79 -28 -12 5 -15 2 -10 -9 4 -12 -2 -17 -24 -22 -16 -3
-32 -5 -35 -5 -4 0 -10 -5 -14 -12 -9 -14 10 -40 24 -32 4 3 2 9 -5 14 -10 6
-8 9 9 9 15 0 22 -4 18 -12 -3 -7 -9 -21 -12 -31 -5 -13 -15 -17 -35 -15 -15
2 -28 -1 -29 -7 0 -12 58 -16 66 -4 3 5 16 9 30 9 16 0 24 6 25 18 0 10 3 12
6 5 7 -18 43 -16 43 2 0 8 -9 19 -20 25 -37 20 -19 50 31 50 10 0 19 5 19 10
0 6 8 10 18 11 10 0 12 3 5 6 -7 2 -13 12 -13 21 0 10 -5 24 -10 32 -9 13 -11
13 -21 0 -9 -13 -10 -12 -5 3 3 10 6 23 6 28 0 4 7 6 15 3 8 -4 15 -12 15 -20
0 -22 47 -17 64 7 l14 21 17 -25 c9 -15 22 -24 30 -20 8 3 21 -2 30 -10 21
-21 19 -30 -5 -22 -26 8 -26 -9 -1 -42 11 -13 17 -31 14 -39 -8 -22 -25 -5
-17 18 5 18 3 20 -12 13 -11 -5 -47 -13 -82 -19 -58 -11 -81 -26 -50 -34 9 -2
8 0 -2 7 -9 7 -10 11 -3 11 6 0 15 -5 19 -11 5 -8 9 -8 14 1 5 8 18 10 34 6
15 -4 24 -11 20 -17 -3 -6 -8 -8 -11 -6 -2 3 -16 -1 -30 -8 -14 -7 -31 -11
-38 -9 -7 3 -15 -4 -18 -15 -3 -12 -1 -19 4 -15 5 3 9 0 9 -5 0 -14 -16 -14
-41 -1 -20 11 -49 3 -32 -9 4 -3 14 -19 21 -35 16 -36 3 -53 -26 -37 -12 6
-23 7 -26 2 -8 -12 4 -21 19 -15 7 3 16 1 20 -5 15 -26 38 4 39 54 1 13 7 19
19 17 9 -2 20 4 23 13 4 9 13 14 20 11 7 -3 21 2 30 12 13 13 16 13 12 2 -3
-8 1 -23 10 -32 9 -11 11 -18 4 -18 -6 0 -16 8 -21 18 -6 9 -11 11 -11 5 0 -7
-11 -13 -24 -13 -29 0 -42 -15 -21 -24 21 -8 19 -29 -3 -24 -19 5 -46 -17 -37
-31 6 -11 -50 -25 -64 -17 -5 3 -12 -1 -15 -10 -9 -22 -8 -26 5 -19 6 4 28 8
50 9 35 2 39 0 39 -21 0 -14 -6 -23 -15 -23 -8 0 -15 -4 -15 -9 0 -4 18 -8 40
-8 22 0 40 4 40 8 0 5 -6 9 -14 9 -8 0 -18 5 -21 10 -10 16 3 29 25 23 11 -3
17 -10 13 -16 -4 -6 4 -7 22 -3 24 6 27 5 16 -7 -9 -12 -9 -16 1 -19 9 -3 9
-6 0 -12 -7 -4 -12 -2 -12 3 0 6 -4 11 -10 11 -5 0 -10 -7 -10 -15 0 -8 -6
-16 -12 -16 -15 -2 38 -16 65 -18 9 0 17 6 17 14 0 8 9 15 19 15 11 0 23 5 26
10 10 17 25 11 25 -10 0 -21 15 -27 25 -10 4 6 11 8 16 5 8 -6 13 11 12 43 -1
6 3 12 8 12 5 0 9 -16 9 -35 0 -35 16 -47 26 -20 7 16 24 21 24 6 0 -5 -7 -17
-16 -25 -8 -9 -11 -16 -5 -16 5 0 13 5 16 10 3 6 24 10 46 10 42 0 54 16 17
23 l-23 4 23 8 c48 16 9 32 -63 27 -16 -2 -17 0 -5 8 16 10 16 10 -27 14 -7 1
-12 6 -10 11 3 12 33 8 69 -10 19 -9 29 -10 38 -1 8 8 13 8 18 0 4 -6 29 -10
57 -9 28 1 59 -1 70 -6 14 -7 6 -8 -27 -6 -32 1 -48 -2 -48 -10 0 -6 5 -15 10
-18 6 -4 8 -11 5 -16 -7 -11 10 -12 54 -3 25 5 29 9 20 20 -9 11 -7 14 10 14
12 0 24 -7 27 -15 7 -18 53 -19 77 -1 21 16 22 26 2 26 -8 0 -15 -7 -15 -15 0
-8 -9 -15 -20 -15 -18 0 -19 2 -8 20 8 12 24 20 41 20 16 0 26 4 22 10 -3 6
-2 10 3 10 6 0 12 -7 16 -15 3 -8 13 -15 22 -15 13 0 15 -6 9 -27 -5 -22 -4
-24 7 -15 8 6 24 9 36 5 12 -3 30 -2 39 1 15 6 15 8 3 16 -8 5 -11 12 -7 16
11 11 36 -16 30 -33 -5 -13 -2 -15 12 -9 10 3 33 2 51 -4 28 -10 37 -9 50 4
19 19 25 20 20 4 -3 -7 -7 -26 -11 -42 -5 -24 -4 -28 8 -18 10 9 16 9 25 0 9
-9 12 -8 12 5 0 9 -7 17 -15 17 -8 0 -15 4 -15 9 0 4 36 12 80 17 63 8 80 7
80 -3 0 -7 7 -10 17 -6 12 5 15 2 10 -10 -3 -9 -3 -17 2 -17 5 0 11 9 14 21 5
18 8 19 20 8 11 -10 12 -16 3 -21 -6 -5 -2 -8 10 -8 23 0 40 25 24 35 -6 4
-10 10 -10 16 0 15 22 11 34 -7 8 -11 20 -13 39 -9 15 4 25 11 22 15 -3 5 -1
11 4 14 5 4 12 2 16 -4 4 -6 11 -7 17 -4 6 4 44 8 86 9 65 2 75 0 80 -17 3
-14 13 -18 46 -17 27 1 32 3 16 6 -14 3 -29 9 -35 15 -11 10 42 1 60 -11 10
-7 45 -6 128 3 50 6 48 -12 -3 -20 -24 -4 -40 -12 -40 -20 0 -16 16 -19 25 -4
3 5 24 8 46 6 38 -4 42 -2 54 27 11 24 14 27 15 12 1 -19 2 -19 14 -3 7 10 16
15 19 11 13 -12 7 -24 -15 -33 l-23 -9 23 0 c12 -1 25 6 28 14 4 10 16 13 44
9 22 -3 41 -1 44 5 5 7 19 4 43 -9 35 -19 100 -20 113 -1 10 16 35 18 45 4 16
-22 175 -27 190 -6 8 10 17 13 26 8 24 -16 90 -15 96 1 3 7 10 11 15 8 7 -4 6
-9 -1 -14 -7 -3 13 -6 43 -5 31 1 62 7 69 14 8 6 17 8 21 4 4 -4 27 -8 52 -8
38 -1 45 2 41 16 -3 12 0 16 9 12 8 -3 14 -11 14 -19 0 -15 19 -17 160 -16 46
1 104 -3 128 -9 38 -8 48 -7 64 8 16 14 18 14 13 1 -5 -12 0 -15 23 -13 16 1
34 5 41 9 7 5 21 0 33 -11 15 -12 22 -14 25 -6 3 8 15 10 35 6 21 -4 29 -3 25
4 -5 8 7 10 35 8 24 -2 45 -4 48 -5 16 -6 67 4 81 16 14 12 17 11 29 -12 13
-23 15 -24 21 -6 6 15 14 18 40 14 l32 -5 -29 -13 c-18 -8 -23 -13 -12 -13 28
-2 70 21 56 30 -25 16 1 20 29 5 58 -31 77 -38 81 -27 2 6 8 11 13 11 6 0 7
-4 4 -10 -7 -11 9 -13 80 -10 51 2 75 13 56 24 -23 14 -10 26 29 26 25 0 40
-5 40 -12 0 -10 2 -10 9 0 6 10 10 10 20 -2 8 -9 26 -13 51 -12 22 2 37 -1 34
-5 -9 -15 7 -31 19 -21 7 5 24 12 39 16 21 5 30 1 42 -15 8 -12 19 -18 26 -14
6 4 43 9 81 11 39 2 74 6 78 8 4 3 13 1 21 -4 16 -10 66 12 73 32 2 7 8 9 13
5 5 -4 3 -12 -4 -16 -23 -14 13 -35 37 -21 15 7 21 8 21 0 0 -14 162 -11 171
3 5 6 16 6 36 0 36 -13 135 -6 145 10 6 9 11 8 18 -3 9 -13 11 -13 20 0 5 8
10 11 10 5 0 -5 5 -3 10 5 9 13 12 13 21 -2 5 -10 17 -18 25 -18 8 0 12 5 9
10 -10 16 18 7 33 -10 12 -13 13 -13 8 3 -3 11 0 17 9 17 11 0 12 5 5 25 -8
20 -6 25 7 25 13 0 14 -7 9 -40 -6 -39 -6 -40 19 -34 16 4 25 2 25 -6 0 -6 5
-8 11 -4 7 4 9 21 6 40 -3 19 -2 34 4 34 5 0 9 -6 9 -12 0 -8 7 -5 15 6 14 18
15 19 15 2 0 -12 5 -16 15 -13 8 4 17 1 21 -5 5 -7 -2 -9 -20 -6 -27 5 -31 1
-18 -19 5 -8 13 -9 22 -3 8 6 25 10 37 10 l23 0 -1 930 c0 825 -2 930 -15 930
-8 0 -13 -4 -9 -9z m-896 -514 c1 7 10 17 21 23 20 11 20 10 7 -22 -11 -26
-20 -33 -40 -33 -15 1 -29 -5 -31 -12 -3 -8 1 -10 12 -7 14 5 15 4 2 -5 -12
-8 -19 -5 -33 12 -14 16 -17 17 -13 5 7 -23 -17 -24 -39 -2 -13 13 -21 14 -38
6 l-22 -11 22 0 c12 -1 24 -4 26 -8 3 -5 -16 -6 -41 -4 -26 2 -44 0 -40 -4 4
-5 -2 -17 -15 -28 l-22 -20 28 7 c28 7 67 -7 67 -24 0 -6 -7 -10 -15 -10 -8 0
-15 -7 -15 -15 0 -8 7 -15 16 -15 8 0 13 -4 9 -9 -3 -5 -1 -12 4 -15 5 -3 12
1 15 10 5 12 8 13 20 2 11 -11 11 -15 -2 -24 -9 -7 -22 -9 -29 -7 -8 3 -13 2
-12 -3 6 -32 -3 -42 -43 -48 -24 -4 -45 -3 -52 4 -7 7 -5 10 7 10 9 0 17 4 17
9 0 12 -62 23 -86 15 -18 -5 -18 -5 0 6 10 7 32 10 50 7 39 -6 61 9 70 48 3
17 3 25 -1 19 -13 -16 -56 -44 -70 -44 -7 0 -13 8 -13 19 0 22 -35 34 -61 21
-12 -7 -19 -5 -23 5 -3 8 -12 15 -21 15 -8 0 -15 6 -15 13 -1 7 -6 5 -14 -5
-7 -10 -17 -18 -21 -18 -9 0 -34 31 -35 44 0 4 9 6 19 3 13 -3 18 -1 14 8 -5
15 26 35 56 35 12 0 21 5 21 10 0 6 9 10 20 10 10 0 30 12 43 26 18 19 27 23
32 14 5 -9 4 -11 -3 -6 -7 4 -12 3 -12 -3 0 -15 23 -26 28 -13 2 7 8 12 13 12
4 0 5 -8 2 -17 -5 -13 -2 -15 11 -10 10 4 27 7 37 7 11 0 18 4 15 9 -3 5 1 11
9 15 9 3 15 0 15 -10 0 -8 5 -12 10 -9 6 4 8 10 5 15 -3 4 2 11 11 14 8 3 12
2 9 -4 -3 -6 -1 -10 4 -10 6 0 11 5 11 11 0 6 15 9 34 8 19 -2 39 0 43 5 4 4
11 -3 14 -16 4 -13 7 -18 8 -11z m-1373 -190 c8 -4 14 -14 14 -20 0 -7 5 -18
12 -25 9 -9 15 -7 25 6 8 9 12 11 8 5 -4 -8 0 -13 9 -13 9 0 16 5 16 10 0 6 5
10 11 10 5 0 7 -4 4 -10 -3 -5 4 -10 16 -10 18 0 19 2 9 15 -12 15 -11 15 17
15 4 0 8 -6 9 -13 3 -38 4 -39 32 -34 34 7 82 -2 82 -15 0 -6 -13 -8 -31 -4
-30 6 -66 -14 -51 -28 3 -4 -2 -4 -13 0 -11 4 -24 12 -28 18 -6 7 -7 4 -3 -6
6 -20 -14 -24 -31 -7 -8 8 -15 5 -26 -11 -9 -14 -20 -19 -28 -15 -7 5 -17 1
-25 -10 -10 -14 -17 -15 -27 -7 -10 9 -19 7 -38 -6 -13 -9 -31 -15 -41 -14 -9
2 -19 -2 -23 -8 -11 -18 -72 -12 -77 8 -6 21 -68 30 -68 10 0 -10 -3 -9 -9 1
-5 8 -14 10 -21 6 -14 -9 -110 -13 -110 -5 0 3 10 10 23 15 12 6 21 16 19 23
-2 10 3 10 17 3 15 -9 20 -7 24 9 3 11 12 20 21 20 9 0 16 8 17 18 0 12 3 10
10 -8 10 -23 11 -24 23 -7 8 10 20 15 30 11 18 -7 19 -4 10 20 -3 9 -18 16
-32 16 -24 0 -25 1 -7 14 11 8 24 12 30 10 5 -2 17 1 25 6 13 9 13 11 0 20
-11 7 -5 10 24 10 30 0 37 -3 32 -15 -3 -8 -1 -15 4 -15 6 0 10 7 10 15 0 11
7 13 28 9 20 -4 32 0 43 12 13 16 14 16 18 -2 2 -10 9 -23 17 -27z m-1276
-112 c0 -16 -6 -25 -15 -25 -8 0 -16 -7 -16 -15 -1 -8 -2 -20 -3 -27 -1 -7 10
-15 24 -19 23 -6 23 -7 3 -8 -12 -1 -25 4 -28 9 -9 14 -25 3 -19 -13 2 -7 29
-13 69 -14 54 -2 63 0 59 12 -4 8 -14 15 -24 15 -11 0 -22 4 -25 10 -3 5 0 7
8 4 8 -3 18 -1 22 5 3 6 21 11 38 12 18 0 41 4 52 9 19 8 19 9 -2 9 -45 2 -22
21 25 21 42 -1 45 -2 28 -15 -10 -7 -16 -18 -13 -23 7 -10 79 -8 96 2 6 4 11
2 11 -3 0 -6 7 -11 15 -11 8 0 15 7 15 15 0 8 7 15 16 15 10 0 14 -6 10 -15
-3 -9 0 -15 8 -15 8 0 17 6 19 13 3 7 6 5 6 -5 1 -11 9 -18 22 -18 11 0 17 5
14 10 -3 6 3 10 15 10 17 0 20 -4 15 -20 -4 -13 -1 -22 10 -26 12 -5 13 -9 4
-20 -14 -17 -45 -18 -53 -1 -3 6 -4 3 -3 -7 1 -13 -6 -21 -25 -27 -16 -4 -30
-3 -34 2 -9 15 -22 10 -20 -8 0 -10 -3 -18 -9 -19 -5 0 -18 -4 -27 -8 -22 -10
-52 0 -43 14 3 5 16 10 28 10 16 0 18 3 9 9 -17 10 -62 2 -62 -12 0 -6 -3 -7
-7 -4 -3 4 -12 2 -20 -4 -14 -13 -47 6 -38 21 6 10 -1 15 -37 24 -22 5 -26 3
-22 -9 4 -10 0 -15 -12 -16 -17 -1 -17 -2 -1 -6 29 -8 19 -26 -12 -21 -17 2
-28 1 -25 -4 3 -4 -6 -8 -20 -8 -13 0 -26 -5 -28 -10 -8 -26 -151 -23 -145 3
1 6 -9 13 -22 15 -19 3 -22 0 -18 -13 5 -12 -2 -20 -28 -31 -39 -16 -48 -17
-42 -6 3 4 -24 8 -59 9 -35 1 -66 -2 -69 -8 -4 -5 -1 -9 6 -9 7 0 5 -8 -6 -20
-10 -11 -25 -20 -34 -19 -11 0 -12 2 -3 6 17 7 -15 32 -40 33 -10 0 -18 6 -18
14 0 11 -11 13 -51 9 -29 -3 -63 -12 -78 -19 -34 -18 -42 -18 -35 1 9 22 -23
19 -36 -4 -5 -11 -23 -22 -40 -26 -17 -4 -28 -11 -24 -16 3 -5 14 -7 25 -4 11
4 19 2 19 -4 0 -6 -9 -11 -19 -11 -11 0 -22 -6 -24 -12 -3 -8 -6 -6 -6 5 -1 9
-3 17 -6 17 -3 0 -18 -8 -32 -17 -15 -10 -24 -12 -20 -5 5 6 5 12 0 13 -91 5
-103 4 -103 -11 -1 -12 -4 -11 -15 4 -8 11 -15 14 -15 8 0 -7 -9 -12 -20 -12
-11 0 -20 -4 -20 -8 0 -14 -69 -7 -82 7 -8 8 -8 11 -2 8 7 -4 14 2 17 13 3 12
14 20 26 20 12 0 21 5 21 10 0 6 -4 10 -10 10 -5 0 -10 4 -10 10 0 5 7 7 15 4
8 -4 15 -1 15 6 0 6 5 8 11 5 6 -4 13 2 16 14 6 24 18 27 27 9 5 -10 7 -10 12
0 3 6 10 10 14 7 5 -3 11 -1 14 4 7 10 -40 24 -54 16 -5 -3 -11 -1 -14 4 -4 5
-2 12 3 16 6 3 7 13 4 22 -5 13 -2 15 18 10 13 -4 32 -7 42 -7 9 0 17 -7 17
-15 0 -8 5 -15 11 -15 6 0 9 -6 6 -14 -7 -17 16 -28 38 -20 22 9 18 24 -7 24
l-22 0 22 20 c25 24 36 26 28 5 -4 -11 2 -15 25 -15 19 0 28 4 23 11 -4 8 0 7
15 -1 12 -6 30 -10 39 -8 9 2 22 -5 29 -17 11 -17 12 -18 13 -2 0 22 16 22 29
0 7 -14 12 -15 24 -4 12 9 20 10 35 0 11 -7 27 -9 38 -4 11 4 28 9 39 10 11 2
45 6 75 11 l55 7 -30 13 c-16 7 -28 14 -25 15 3 0 32 7 65 14 33 7 50 13 38
14 -12 0 -24 5 -27 9 -3 5 17 7 44 4 34 -3 50 0 50 8 0 6 -6 8 -12 4 -10 -5
-10 -4 -1 6 7 7 25 13 40 14 17 1 29 7 29 16 1 8 2 21 3 28 0 6 9 12 19 12 14
0 15 -2 2 -10 -11 -7 -5 -10 23 -10 28 0 37 4 38 18 0 10 3 12 6 5 5 -14 50
-17 77 -7 13 5 14 9 5 20 -9 11 -8 14 5 14 10 0 16 -9 16 -25z m711 -5 c13 0
17 -5 12 -16 -5 -14 -1 -16 20 -12 35 7 46 -2 36 -30 -7 -19 -14 -22 -31 -16
-56 17 -54 17 -38 5 17 -12 16 -13 -28 -28 -20 -7 -30 -8 -26 -1 4 6 -1 8 -15
3 -12 -4 -21 -2 -21 4 0 6 -12 11 -27 10 l-28 -1 25 -7 c25 -7 24 -8 -7 -15
-40 -9 -96 2 -90 17 2 7 12 11 21 11 20 -2 21 15 1 22 -21 9 -8 24 20 24 31 0
76 20 69 31 -9 15 3 10 21 -7 15 -15 18 -15 38 6 13 14 22 19 25 12 2 -7 12
-12 23 -12z m-765 -499 c5 -5 22 -11 38 -13 48 -5 44 -27 -3 -23 l-41 4 17
-25 c16 -25 16 -25 -10 -18 -17 4 -27 2 -27 -5 0 -6 -4 -11 -10 -11 -17 0 -11
32 7 46 10 7 14 16 9 21 -4 4 -15 -2 -23 -14 -14 -22 -41 -34 -28 -14 3 5 1
12 -5 16 -6 3 -10 -3 -10 -15 0 -18 -4 -21 -24 -16 -20 5 -23 3 -19 -14 6 -23
38 -27 47 -5 3 8 10 15 16 15 13 0 13 -50 0 -51 -53 -6 -91 6 -83 27 3 7 0 14
-6 14 -6 0 -11 -5 -11 -11 0 -6 -8 -8 -19 -4 -13 4 -23 0 -30 -12 -5 -10 -13
-15 -16 -11 -8 8 19 38 34 38 5 0 13 5 16 10 4 6 -5 10 -24 8 -17 -1 -31 -8
-31 -15 0 -14 -16 -17 -105 -15 -55 1 -58 0 -28 -10 21 -7 31 -16 30 -29 -2
-23 -13 -25 -21 -4 -3 8 -14 15 -24 15 -10 0 -23 5 -29 11 -6 6 -17 8 -23 4
-9 -6 -9 -9 -1 -15 7 -4 -5 -6 -26 -6 -33 2 -39 5 -47 34 -11 38 -18 40 -35 8
-9 -17 -25 -26 -53 -30 -23 -4 -43 -4 -46 -2 -8 9 8 56 19 56 6 0 9 -6 6 -13
-6 -17 37 -11 68 9 12 7 39 10 65 8 87 -9 220 -10 220 -2 0 4 6 8 14 8 8 0 16
6 19 14 4 11 13 12 46 3 36 -10 42 -9 55 8 8 11 18 16 22 12 5 -4 2 -12 -6
-17 -8 -5 -12 -12 -8 -15 3 -4 16 3 28 15 11 11 25 18 30 15 6 -4 10 1 10 9 0
18 40 22 56 7z m-578 -170 c6 -1 12 -6 12 -12 0 -8 -19 -9 -62 -5 l-63 7 -2
-31 c-2 -27 0 -29 17 -20 13 7 21 7 25 -1 9 -14 0 -22 -38 -35 -27 -10 -32
-16 -31 -43 1 -17 -2 -31 -7 -31 -5 0 -9 6 -9 14 0 8 -11 17 -24 20 -13 3 -31
9 -39 12 -12 4 -16 -1 -15 -26 1 -22 5 -29 15 -26 11 5 13 0 7 -16 -5 -17 -3
-20 10 -15 10 4 16 1 16 -8 0 -8 -9 -15 -20 -15 -11 0 -20 -5 -20 -11 0 -14
-52 -7 -57 8 -3 7 3 9 16 6 18 -5 21 -1 21 25 0 17 -4 34 -10 37 -5 3 -10 -1
-10 -11 0 -13 -6 -15 -30 -11 -33 7 -80 44 -80 64 0 7 -4 13 -10 13 -5 0 -10
5 -10 11 0 6 9 9 20 6 11 -3 20 -2 20 3 0 14 31 20 51 9 16 -8 18 -13 8 -25
-6 -8 -19 -14 -28 -13 -12 0 -12 2 3 8 14 5 16 10 7 15 -6 4 -18 2 -26 -4 -16
-13 -20 -31 -7 -29 20 3 32 -2 32 -16 0 -16 12 -20 24 -8 4 4 14 8 22 8 7 0
13 5 13 10 -1 6 -5 9 -10 8 -5 -2 -9 6 -9 16 0 17 5 19 34 14 19 -3 36 -1 40
6 4 6 0 11 -11 11 -16 1 -16 3 4 19 12 10 19 22 15 26 -7 8 3 5 45 -12 11 -4
14 -3 9 5 -4 7 -1 13 6 13 7 1 -5 5 -26 8 -22 3 -41 11 -43 18 -3 9 21 11 94
8 54 -1 104 -3 111 -4z"/>
<path d="M9900 5449 c0 -26 3 -30 10 -19 8 12 10 12 10 1 0 -10 3 -11 14 -2
10 9 16 9 21 1 4 -6 17 -10 28 -8 12 1 22 -2 22 -7 0 -6 -4 -9 -9 -7 -4 1 -25
4 -45 6 -36 3 -38 2 -38 -27 0 -25 2 -27 12 -13 13 17 50 23 40 6 -3 -6 0 -17
9 -25 15 -16 43 -11 61 11 6 7 20 15 33 19 19 5 22 3 22 -18 0 -14 6 -27 13
-29 6 -3 -2 -5 -20 -5 -20 0 -30 4 -26 11 3 6 0 5 -7 -1 -18 -17 -13 -20 35
-25 26 -2 40 1 40 9 0 6 3 14 6 18 9 8 -12 75 -23 75 -4 0 -8 -6 -8 -12 0 -9
-4 -8 -10 2 -5 8 -10 11 -10 5 0 -5 -12 -11 -27 -12 -25 -1 -25 0 -8 9 11 6
21 12 23 14 6 4 -22 44 -31 44 -4 0 -4 -12 -1 -27 7 -25 6 -27 -9 -14 -10 7
-17 19 -17 26 0 16 -56 25 -69 12 -7 -7 -15 -6 -26 3 -13 11 -15 8 -15 -21z"/>
<path d="M9751 5443 c-2 -25 -36 -53 -63 -53 -34 0 -45 -17 -24 -38 9 -9 16
-11 16 -5 0 6 7 14 16 17 12 4 15 2 10 -9 -3 -9 0 -15 10 -15 8 0 13 4 9 9 -3
6 4 15 15 21 11 6 20 7 20 2 0 -16 -36 -42 -60 -42 -19 0 -20 -2 -10 -15 7 -8
9 -15 4 -15 -5 0 -14 -11 -21 -25 -9 -21 -8 -27 7 -35 10 -5 26 -17 34 -26 13
-12 20 -13 30 -5 8 7 20 10 27 9 8 -2 15 7 17 20 2 12 7 22 12 22 13 0 9 58
-4 69 -7 6 -17 6 -26 0 -11 -8 -12 -12 -2 -16 6 -2 12 -9 12 -14 0 -6 -4 -7
-10 -4 -5 3 -10 2 -10 -4 0 -5 -9 -13 -20 -16 -11 -4 -18 -11 -14 -16 3 -5 15
-7 27 -3 20 6 20 5 8 -10 -15 -17 -55 -15 -74 4 -11 10 28 50 49 50 8 0 12 5
9 11 -4 5 6 21 21 34 26 22 27 26 12 37 -9 7 -19 27 -21 43 -2 17 -5 24 -6 18z"/>
<path d="M10189 5419 c-11 -7 -9 -9 9 -9 12 0 22 -4 22 -10 0 -5 -9 -10 -19
-10 -11 0 -23 -5 -27 -11 -4 -8 -9 -7 -15 2 -6 10 -9 7 -9 -10 0 -14 5 -21 13
-18 53 20 57 19 57 -8 0 -20 4 -25 18 -22 62 17 69 17 82 -8 7 -14 10 -28 7
-32 -4 -3 -7 -1 -7 5 0 7 -9 7 -27 -3 -16 -8 -37 -17 -48 -20 -20 -6 -20 -7
-1 -21 20 -14 20 -14 0 -29 -10 -8 -25 -15 -31 -15 -19 0 -16 21 5 36 16 12
16 13 0 14 -9 0 -19 -4 -23 -10 -3 -5 -11 -8 -18 -6 -7 1 -9 1 -4 -1 4 -3 7
-11 7 -19 0 -8 5 -14 10 -14 6 0 10 -5 10 -11 0 -17 -52 -1 -73 22 -10 10 -24
19 -32 19 -8 0 -15 6 -15 13 0 20 -37 38 -61 29 -20 -8 -19 -10 15 -26 20 -9
36 -21 36 -26 0 -6 9 -10 20 -10 11 0 20 -5 20 -11 0 -6 -7 -9 -15 -5 -8 3
-15 2 -15 -3 0 -5 -10 -12 -22 -15 l-23 -7 23 -9 c12 -5 22 -14 22 -19 0 -17
-20 -23 -35 -11 -9 7 -15 8 -15 2 0 -5 7 -15 15 -22 13 -10 19 -10 33 3 9 8
33 18 52 22 19 4 41 12 48 18 24 19 24 -2 -1 -29 -31 -34 -26 -55 11 -45 21 6
26 13 24 31 -3 16 4 29 19 41 13 10 20 21 15 26 -5 4 -11 2 -13 -4 -3 -7 -11
-13 -19 -13 -26 0 -15 16 21 30 19 8 35 19 35 25 0 20 40 45 71 45 26 0 29 2
19 15 -6 8 -9 23 -5 36 6 18 4 20 -14 14 -26 -8 -27 0 -1 27 21 23 19 33 -8
40 -15 4 -18 0 -15 -26 2 -17 0 -25 -3 -18 -3 6 -14 12 -25 12 -16 0 -18 5
-13 25 5 19 2 25 -11 25 -12 0 -15 -5 -10 -20 5 -16 2 -20 -14 -20 -12 0 -21
5 -21 10 0 6 5 10 10 10 16 0 12 14 -8 27 -12 7 -24 8 -33 2z"/>
<path d="M4842 5143 c-15 -3 -22 -10 -18 -19 3 -9 -1 -14 -14 -14 -10 0 -31
-6 -46 -12 -22 -10 -28 -10 -32 0 -3 9 -9 9 -23 1 -13 -7 -18 -16 -14 -29 3
-10 1 -21 -5 -25 -6 -4 -10 5 -10 23 0 28 -2 29 -45 27 -47 -2 -53 3 -33 23 9
9 8 12 -4 12 -8 0 -21 -7 -28 -15 -10 -12 -15 -13 -20 -4 -4 6 -13 8 -19 4 -9
-5 -9 -10 0 -21 15 -18 2 -18 -17 0 -8 8 -11 22 -8 30 3 9 1 16 -5 16 -6 0
-11 -4 -11 -10 0 -5 -5 -9 -12 -7 -7 1 -12 -5 -13 -13 0 -8 -6 -14 -13 -13 -6
2 -9 -4 -6 -12 8 -19 -25 -53 -35 -37 -4 6 -25 16 -46 21 l-40 9 40 2 c22 1
33 4 25 7 -8 3 -18 12 -23 19 -4 7 -15 10 -24 7 -11 -5 -14 -3 -8 6 6 10 2 11
-16 6 -42 -14 -65 -54 -39 -70 12 -7 13 -25 3 -25 -11 0 -33 51 -27 61 3 5 -7
9 -23 9 -21 0 -24 3 -13 10 8 5 11 12 8 16 -4 4 -19 -1 -34 -10 -24 -16 -25
-19 -10 -35 15 -17 15 -21 -1 -49 -10 -17 -26 -33 -37 -36 -14 -4 -16 -2 -7 7
17 17 14 40 -5 33 -9 -4 -23 -1 -30 5 -10 8 -17 7 -29 -4 -8 -8 -23 -13 -33
-10 -12 3 -22 -2 -25 -11 -8 -20 -34 -21 -53 -1 -19 19 -25 19 -50 1 -22 -16
-15 -28 17 -30 12 0 24 -6 26 -13 5 -13 -34 -6 -54 9 -7 5 -17 6 -24 2 -16
-10 30 -44 50 -36 9 3 12 1 7 -6 -3 -6 -24 -10 -46 -9 -22 1 -34 5 -27 9 6 4
-14 4 -46 1 l-57 -6 0 32 c0 18 -4 30 -9 27 -5 -3 -7 -16 -3 -28 3 -14 2 -19
-6 -14 -7 4 -12 14 -12 22 0 8 -4 14 -10 14 -5 0 -10 -11 -10 -25 0 -23 -5
-27 -27 -24 -5 1 -7 6 -5 11 2 6 -6 8 -20 4 -13 -3 -32 -6 -43 -6 -17 0 -17
-2 -5 -10 13 -9 13 -10 0 -10 -9 0 -21 5 -27 11 -5 5 -22 7 -36 4 -22 -6 -26
-13 -29 -48 -2 -26 -8 -42 -18 -44 -12 -4 -12 -3 -1 5 17 12 -1 24 -23 16 -13
-5 -16 1 -16 29 0 37 -14 49 -49 40 -25 -6 -28 12 -4 26 10 5 15 13 11 17 -4
4 -13 2 -21 -4 -7 -6 -23 -9 -35 -5 -29 7 -29 -13 0 -23 20 -6 20 -7 3 -17
-13 -7 -24 -6 -36 2 -11 6 -24 11 -31 11 -9 0 -8 -3 2 -10 9 -6 10 -10 3 -10
-7 0 -17 9 -23 20 -14 26 -30 17 -30 -16 0 -15 -6 -24 -15 -24 -8 0 -15 5 -15
10 0 6 -11 10 -25 10 -18 0 -23 4 -19 15 4 8 1 15 -5 15 -6 0 -11 -4 -11 -10
0 -5 -9 -10 -21 -10 -13 0 -18 4 -13 12 4 7 3 8 -4 4 -6 -4 -8 -14 -5 -23 5
-13 2 -15 -12 -9 -11 4 -22 1 -27 -6 -8 -10 -11 -10 -15 0 -2 6 -11 12 -19 12
-9 0 -13 -4 -9 -10 3 -5 -9 -13 -27 -18 l-33 -9 35 -16 35 -15 -37 1 c-22 0
-39 6 -43 14 -3 8 -10 13 -17 11 -7 -3 -20 9 -29 26 -15 29 -21 31 -79 34 -43
2 -73 -2 -98 -14 -33 -15 -34 -18 -17 -25 14 -5 16 -8 5 -9 -20 -3 -22 -3 -44
6 -16 6 -18 4 -13 -10 6 -15 3 -17 -13 -13 -13 3 -20 0 -20 -8 0 -9 15 -15 43
-18 32 -3 28 -4 -16 -4 l-59 0 6 28 c5 28 5 29 -38 27 -30 -2 -42 -6 -39 -14
3 -8 -2 -11 -16 -7 -22 6 -29 -12 -8 -21 6 -3 1 -3 -13 1 -14 4 -35 7 -47 6
-13 0 -24 6 -26 16 -3 12 -7 8 -15 -12 -10 -23 -16 -27 -33 -22 -33 11 -88 8
-103 -4 -11 -9 -16 -9 -22 0 -4 7 -2 15 4 17 23 7 1 22 -24 16 -17 -4 -26 -1
-30 10 -9 24 -33 19 -40 -9 -6 -24 -34 -36 -34 -15 0 6 -7 10 -16 10 -8 0 -13
-4 -10 -9 3 -5 -3 -11 -15 -14 -16 -4 -19 -2 -14 14 8 25 -6 24 -28 -1 -9 -11
-24 -20 -33 -20 -14 0 -14 -3 -4 -15 7 -9 8 -15 2 -15 -14 0 -23 26 -16 48 5
16 5 16 -9 0 -10 -13 -23 -16 -50 -11 -31 5 -37 3 -37 -12 0 -9 -9 -19 -20
-22 -11 -3 -20 -9 -20 -14 0 -5 -18 -8 -39 -6 -30 1 -37 5 -29 15 7 8 7 17 -2
27 -18 22 -29 18 -24 -7 2 -13 2 -18 -1 -12 -7 13 -45 7 -45 -7 0 -5 9 -9 20
-9 17 0 20 -6 19 -42 -1 -24 -3 -36 -6 -27 -2 10 -15 15 -38 15 -18 0 -31 -4
-29 -8 3 -4 0 -8 -5 -8 -6 0 -11 5 -11 11 0 7 -10 9 -26 5 -21 -6 -25 -4 -21
8 3 8 -1 17 -9 20 -26 10 -34 7 -28 -11 5 -14 4 -15 -4 -4 -6 8 -15 10 -22 6
-9 -5 -11 -4 -6 4 12 20 -23 24 -51 6 -20 -14 -38 -16 -79 -11 -54 6 -65 1
-42 -22 6 -6 9 -15 5 -18 -3 -4 -14 1 -23 10 -12 13 -28 16 -62 12 -36 -3 -50
0 -62 13 -8 10 -28 22 -45 28 l-30 10 29 7 c19 5 36 2 53 -10 21 -13 27 -14
34 -3 6 10 9 10 9 2 0 -7 -8 -17 -17 -22 -10 -6 -13 -11 -7 -11 17 0 57 47 51
62 -4 10 -6 10 -6 1 -1 -16 -37 -17 -47 -1 -5 8 -2 9 9 5 10 -3 17 -2 17 3 0
17 -5 25 -13 23 -4 -2 -7 2 -7 7 0 6 -4 10 -10 10 -5 0 -10 -7 -10 -15 0 -8
-4 -15 -10 -15 -5 0 -7 7 -4 15 4 8 1 15 -5 15 -6 0 -11 -6 -11 -12 0 -7 -5
-5 -11 5 -14 23 -29 13 -23 -17 3 -19 -1 -25 -25 -29 -20 -4 -31 -13 -34 -29
-4 -20 -4 -19 -6 5 -1 21 5 30 27 39 22 9 24 12 9 15 -10 3 -31 0 -46 -5 -17
-6 -34 -6 -42 -1 -11 7 -10 9 5 9 11 0 16 3 12 8 -12 12 -52 9 -65 -5 -9 -10
-9 -13 4 -13 8 0 15 -4 15 -10 0 -5 7 -10 15 -10 19 0 20 -19 1 -26 -20 -8
-81 11 -79 25 2 6 -2 11 -7 11 -6 0 -10 -13 -10 -30 0 -25 -4 -30 -25 -30 -18
0 -23 4 -19 15 5 12 -3 15 -37 16 -34 1 -38 3 -20 8 14 4 27 13 29 21 5 13 3
13 -12 1 -13 -11 -20 -11 -28 -3 -7 7 -21 12 -32 12 -20 0 -20 0 0 -15 18 -14
18 -14 0 -15 -15 0 -16 -3 -6 -15 9 -10 9 -15 1 -15 -6 0 -11 6 -11 13 0 7 -7
4 -15 -7 -8 -11 -15 -15 -15 -9 0 7 5 15 10 18 15 9 12 37 -2 32 -7 -2 -21 3
-31 11 -16 15 -18 14 -24 -6 -3 -12 -10 -22 -16 -22 -5 0 -16 -8 -23 -17 -12
-17 -14 -17 -31 0 -17 16 -16 17 10 17 30 0 33 7 13 33 -14 18 -52 25 -41 7 3
-5 0 -10 -9 -10 -8 0 -16 6 -19 13 -4 10 -7 10 -18 0 -9 -10 -10 -13 -1 -13 7
0 12 -9 12 -20 0 -11 -4 -20 -10 -20 -5 0 -10 4 -10 10 0 5 -13 7 -30 4 -19
-4 -30 -2 -30 5 0 6 -6 11 -14 11 -15 0 -26 -21 -26 -49 0 -14 -6 -17 -27 -13
-17 3 -30 -1 -39 -12 -14 -19 -30 -5 -20 19 4 11 -1 12 -27 3 -18 -6 -35 -16
-39 -22 -4 -6 -6 -1 -6 11 2 14 7 19 17 15 14 -5 14 -4 1 10 -10 10 -17 12
-21 5 -4 -5 -15 -7 -24 -3 -15 5 -16 4 -5 -9 11 -13 8 -15 -16 -16 -28 0 -28
0 8 -15 32 -14 36 -18 23 -30 -7 -8 -22 -13 -32 -12 -39 3 -53 -2 -53 -22 0
-11 -7 -20 -15 -20 -8 0 -15 5 -15 10 0 6 -5 10 -11 10 -6 0 -9 -7 -5 -15 3
-8 1 -15 -4 -15 -6 0 -10 6 -10 13 0 22 -38 37 -77 31 -55 -7 -63 -11 -63 -30
0 -10 3 -14 7 -11 8 9 33 -12 33 -28 0 -7 -9 -15 -21 -18 -12 -3 -20 -13 -19
-24 1 -10 1 -29 0 -43 -1 -23 -2 -23 -10 -5 -6 14 -8 7 -7 -27 1 -47 12 -62
23 -33 4 8 10 15 15 15 5 0 4 -9 -3 -20 -7 -11 -18 -20 -25 -20 -18 0 -16 -36
2 -64 14 -21 14 -24 1 -29 -13 -5 -15 -47 -15 -272 0 -257 1 -267 21 -290 12
-14 31 -25 42 -25 20 1 20 1 2 11 -15 9 -16 13 -5 20 23 15 52 11 45 -6 -3 -9
0 -15 9 -15 8 0 14 5 12 11 -3 14 51 31 59 18 3 -5 2 -13 -1 -19 -3 -5 -2 -10
4 -10 5 0 13 4 16 10 3 5 11 10 16 10 6 0 8 -4 5 -8 -3 -5 8 -9 24 -9 16 0 27
4 24 9 -3 4 6 4 19 -1 14 -6 28 -7 31 -4 3 4 6 2 6 -4 0 -10 97 -9 143 1 10 3
21 -2 24 -10 4 -10 10 -11 25 -3 11 6 27 8 35 4 9 -3 20 0 24 7 6 9 13 10 26
3 10 -5 58 -9 106 -7 78 3 88 6 82 20 -5 13 -4 14 6 5 7 -7 24 -9 40 -6 16 3
29 2 29 -3 0 -5 13 -9 30 -10 16 -1 27 3 24 7 -3 5 2 9 11 9 10 0 13 -5 9 -12
-5 -8 -2 -9 12 -3 19 8 31 9 222 19 91 5 102 3 102 -12 1 -16 1 -16 11 1 5 9
16 17 24 17 7 0 12 -8 10 -17 -1 -10 0 -12 2 -5 3 6 13 12 23 12 10 0 25 3 34
6 11 4 16 1 16 -11 0 -14 4 -13 20 6 10 13 19 19 20 13 0 -10 54 -31 95 -36
16 -3 20 2 18 25 -2 22 2 27 15 25 9 -3 16 -10 15 -16 -4 -15 14 -16 19 -1 5
14 100 19 117 6 10 -8 16 -8 25 4 11 15 43 14 60 -1 5 -5 31 -6 57 -3 51 6 58
0 36 -31 -11 -15 -17 -16 -35 -7 -29 15 -45 14 -38 -4 6 -17 -9 -21 -19 -5 -4
6 -15 8 -26 5 -11 -4 -19 -2 -19 4 0 6 9 11 20 11 11 0 20 5 20 10 0 13 -21
13 -54 0 -17 -6 -26 -6 -26 0 0 6 -8 10 -17 10 -16 0 -16 -2 -3 -11 11 -7 4
-10 -30 -8 -59 2 -70 1 -70 -10 0 -5 9 -7 20 -4 14 4 20 0 20 -11 0 -20 7 -20
27 0 9 8 22 13 30 10 8 -3 22 -6 31 -6 13 0 14 -2 4 -9 -21 -13 114 -24 138
-11 11 6 25 8 31 4 21 -12 69 -10 69 3 0 10 11 12 43 7 23 -4 47 -11 54 -16 7
-6 13 -4 16 4 4 9 6 7 6 -4 1 -14 8 -16 44 -11 23 3 54 5 70 4 15 0 27 3 27 7
0 9 62 9 77 -1 8 -5 13 2 16 20 4 27 4 27 12 6 4 -13 12 -23 17 -23 6 0 8 -7
4 -15 -7 -20 18 -19 38 1 15 14 16 14 16 0 0 -19 16 -21 23 -3 4 9 6 9 6 0 1
-14 61 3 74 21 5 8 9 7 15 -2 6 -9 21 -10 61 -2 29 5 70 7 90 4 20 -3 47 -1
62 4 32 13 79 4 79 -14 0 -8 5 -14 11 -14 6 0 9 6 6 13 -3 8 -1 20 3 28 7 11
10 10 16 -4 3 -9 10 -17 16 -17 5 0 7 4 4 9 -4 6 18 8 50 6 33 -2 60 -9 65
-17 7 -10 9 -9 9 5 0 20 16 23 23 5 4 -10 6 -10 6 0 1 6 6 12 12 12 5 0 7 -4
4 -10 -3 -5 1 -10 9 -10 8 0 18 5 21 10 4 6 11 8 16 4 5 -3 16 -1 24 6 9 8 15
8 20 0 5 -8 11 -8 21 1 11 9 21 9 39 1 19 -9 23 -8 19 2 -3 8 -1 17 5 21 6 3
11 0 11 -8 0 -8 9 -17 21 -20 17 -5 18 -3 8 9 -16 20 -7 26 23 15 19 -7 29 -6
41 6 15 15 15 14 10 -5 -5 -21 10 -31 21 -13 3 5 55 7 116 5 64 -2 108 0 105
6 -3 5 -1 11 4 14 5 3 11 -1 15 -9 3 -8 11 -15 18 -15 9 0 9 3 -2 11 -11 8 -8
9 13 4 17 -3 35 -1 43 6 9 8 14 8 14 1 0 -7 15 -10 38 -8 45 4 62 -2 62 -20 0
-19 17 -18 24 3 4 9 1 21 -6 26 -9 6 -8 7 5 3 10 -3 23 -6 28 -6 6 0 7 -4 4
-10 -3 -5 -1 -10 4 -10 6 0 11 4 11 9 0 11 72 7 90 -4 8 -5 16 -1 22 9 11 19
34 21 41 4 4 -10 7 -10 18 0 11 10 10 12 -4 12 -9 0 -17 5 -17 10 0 6 10 8 23
5 15 -4 28 -1 36 9 14 17 51 22 51 7 0 -15 120 -24 169 -13 38 9 42 9 29 -4
-9 -9 -38 -16 -76 -17 -83 -2 -67 -12 21 -13 40 0 77 -2 82 -5 6 -2 11 1 13 6
1 6 -2 11 -8 11 -22 3 -24 4 -13 15 17 17 53 -6 48 -31 -2 -12 2 -20 9 -20 9
0 12 11 9 35 -3 30 0 37 21 44 13 6 34 7 46 4 17 -4 21 -2 18 8 -3 8 -16 13
-29 12 -20 -2 -19 1 11 17 43 23 66 25 104 5 15 -8 33 -15 38 -15 10 0 38 -25
38 -34 0 -10 -39 -6 -45 4 -10 16 -25 11 -25 -8 0 -15 -7 -17 -41 -14 -39 4
-41 3 -34 -18 5 -17 4 -21 -6 -18 -8 3 -13 15 -12 27 3 22 -11 29 -22 10 -4
-6 -14 -8 -22 -5 -20 8 -39 -4 -23 -14 6 -4 12 -15 14 -24 3 -19 21 -22 21 -3
1 12 25 11 35 -1 7 -10 80 -10 80 0 0 12 68 10 75 -2 9 -14 85 -13 85 1 0 8 4
8 14 0 11 -9 15 -8 20 6 6 14 9 15 15 4 5 -7 14 -11 20 -7 7 5 7 12 -1 25 -9
15 -8 22 5 36 20 20 21 27 5 43 -9 9 -9 15 1 25 11 10 13 9 8 -5 -5 -13 -1
-18 13 -18 10 0 21 4 24 9 10 16 -5 41 -24 41 -11 0 -22 5 -26 12 -4 7 -3 8 4
4 6 -4 29 3 51 16 38 22 41 22 73 6 20 -11 26 -17 16 -17 -12 -1 -18 -9 -18
-26 0 -14 5 -25 10 -25 6 0 10 9 10 20 0 14 10 22 33 28 l32 8 -27 7 c-18 5
-28 14 -27 25 0 10 3 12 6 5 7 -19 80 -16 91 3 6 10 14 14 22 9 9 -6 9 -10 -1
-17 -10 -7 -8 -8 8 -3 12 3 24 2 27 -3 3 -5 17 -7 31 -4 20 3 24 9 21 27 -3
15 1 26 11 29 22 9 30 7 13 -4 -12 -7 -12 -12 4 -28 13 -15 14 -21 5 -24 -7
-2 25 -5 71 -6 117 -2 135 -6 133 -26 0 -11 4 -15 13 -12 19 7 30 -14 13 -25
-11 -7 -10 -9 4 -9 9 0 17 6 17 14 0 16 64 13 86 -4 11 -10 17 -10 29 0 12 10
15 10 15 -4 0 -9 4 -16 9 -16 5 0 4 14 -2 30 -11 29 -27 41 -27 20 0 -5 -4
-10 -10 -10 -5 0 -10 9 -10 20 0 21 24 28 35 10 5 -8 11 -8 19 -1 7 6 16 8 19
4 4 -3 7 1 7 11 0 13 -5 16 -20 11 -12 -4 -28 -1 -36 6 -11 9 -18 9 -26 1 -7
-7 -24 -12 -39 -12 -15 0 -34 -6 -42 -14 -9 -9 -19 -11 -28 -5 -11 7 -11 9 -1
9 7 0 27 13 45 30 32 30 65 41 51 18 -4 -7 4 -3 17 9 19 17 28 19 42 11 23
-12 30 -6 29 29 0 26 12 43 32 43 5 0 3 -7 -4 -15 -10 -12 -10 -15 3 -15 8 0
17 7 21 15 3 8 16 15 28 16 13 0 17 3 11 6 -7 2 -13 11 -13 19 0 8 -4 14 -10
14 -5 0 -9 -3 -9 -7 4 -24 -5 -30 -48 -29 -46 1 -48 0 -46 -25 1 -25 -1 -26
-42 -25 -24 0 -41 4 -38 9 2 4 11 7 19 7 8 0 14 5 14 10 0 13 -21 13 -54 0
-19 -7 -29 -6 -41 6 -15 16 -19 12 -15 -19 1 -10 -4 -17 -12 -16 -24 3 -38 -1
-38 -11 0 -5 8 -10 18 -11 10 0 12 -3 4 -6 -6 -2 -10 -8 -8 -11 2 -4 -2 -13
-10 -20 -12 -11 -14 -8 -14 17 0 16 -3 36 -6 45 -5 12 1 16 22 16 25 1 27 2
11 11 -10 6 -24 8 -32 5 -7 -2 -16 2 -19 11 -5 12 -1 14 18 9 22 -6 80 16 91
34 5 9 -45 -3 -65 -15 -6 -4 -10 6 -10 26 0 30 -1 31 -32 25 -38 -7 -42 -11
-33 -27 6 -8 10 -7 17 5 11 20 38 21 38 1 0 -8 -6 -15 -14 -15 -8 0 -16 -6
-19 -12 -3 -10 -7 -10 -17 -1 -8 7 -22 8 -43 2 -18 -5 -35 -9 -38 -9 -10 0 -3
38 9 53 16 19 60 28 65 13 3 -8 8 -7 18 2 7 6 21 12 31 12 12 0 16 5 12 18 -5
14 -4 14 4 2 6 -8 8 -18 6 -22 -8 -12 11 -10 53 6 21 8 47 17 58 19 13 3 10 5
-11 6 -16 0 -36 7 -43 14 -11 10 -14 9 -18 -1 -3 -9 -18 -11 -51 -7 -26 4 -85
-1 -132 -9 -60 -11 -86 -12 -91 -4 -4 7 -18 8 -35 3 -29 -7 -29 -7 -6 -18 35
-16 26 -27 -22 -27 -53 0 -76 8 -76 25 0 8 -4 17 -10 20 -5 3 -10 -4 -10 -15
0 -13 8 -24 20 -27 11 -3 20 -9 20 -13 0 -12 -49 -22 -63 -13 -7 4 -24 6 -39
4 -29 -3 -36 7 -17 26 6 6 8 16 4 22 -4 8 -11 6 -21 -4 -9 -8 -29 -15 -46 -15
l-30 0 22 -18 22 -17 -21 -19 c-12 -11 -21 -25 -21 -33 0 -7 -5 -13 -10 -13
-6 0 -4 13 5 31 9 17 14 36 11 42 -3 8 -5 8 -5 1 -1 -13 -51 -6 -51 7 0 5 -7
9 -16 9 -12 0 -15 -6 -10 -25 5 -19 3 -23 -9 -19 -8 4 -15 9 -15 13 0 3 -4 12
-9 20 -7 11 -14 9 -35 -13 -14 -16 -31 -26 -38 -23 -10 4 -10 6 0 6 14 1 17
41 2 41 -5 0 -10 -4 -10 -8 0 -5 -29 -14 -65 -21 -48 -10 -65 -18 -66 -30 0
-10 -2 -11 -6 -3 -6 14 -39 16 -48 2 -3 -5 -2 -10 4 -10 6 0 15 -9 21 -20 9
-16 8 -20 -6 -20 -10 0 -14 5 -11 14 7 19 -24 31 -36 14 -6 -9 -7 -8 -3 4 7
22 -11 33 -28 19 -10 -9 -15 -8 -20 5 -4 9 -13 14 -21 10 -8 -3 -15 -1 -15 5
0 6 -7 8 -16 5 -8 -3 -24 -1 -35 4 -14 8 -19 7 -19 -2 0 -9 -3 -9 -11 -1 -7 7
-21 8 -39 3 -16 -5 -32 -5 -36 -2 -4 4 -4 2 -1 -4 4 -7 -3 -14 -18 -16 -16 -3
-25 -1 -25 7 0 21 -29 26 -39 7 -6 -10 -11 -12 -11 -4 0 17 -25 15 -43 -3 -12
-11 -16 -12 -20 -2 -3 9 -18 6 -58 -10 -54 -23 -97 -32 -49 -11 21 9 22 12 7
15 -10 3 -28 -4 -40 -14 -21 -18 -21 -18 -7 1 14 18 13 19 -2 13 -11 -4 -18
-2 -18 6 -1 7 -9 3 -18 -9 -15 -18 -20 -19 -31 -7 -11 12 -16 12 -37 -1 -20
-14 -23 -14 -18 -1 4 10 0 15 -11 15 -10 0 -15 -5 -12 -13 3 -8 -1 -14 -8 -14
-8 0 -14 3 -13 6 2 18 -3 24 -11 12 -5 -7 -20 -13 -35 -13 -14 0 -26 -6 -26
-12 0 -6 -4 -5 -9 3 -5 8 -16 11 -25 8 -9 -4 -16 -3 -16 2 0 12 -94 9 -102 -3
-5 -8 -8 -7 -8 2 0 9 -5 10 -17 3 -15 -7 -18 -4 -20 20 -2 27 10 39 21 21 3
-5 42 -8 88 -7 103 3 98 2 98 21 0 8 5 12 10 9 6 -4 8 -11 5 -16 -4 -5 0 -9 9
-9 8 0 21 -3 30 -6 10 -4 16 -1 16 9 0 8 7 18 16 21 9 4 13 2 8 -5 -5 -8 3
-10 27 -4 35 7 134 16 201 18 32 1 36 4 35 26 -2 18 4 26 21 30 13 3 23 9 23
14 -2 25 1 28 22 22 22 -7 22 -7 2 9 -23 17 -39 21 -30 6 3 -5 -3 -10 -14 -10
-12 0 -21 -4 -21 -10 0 -5 7 -6 17 -3 11 4 14 3 9 -5 -11 -19 -40 -14 -59 9
-10 11 -21 18 -25 14 -3 -3 0 -10 8 -15 13 -8 12 -10 -2 -10 -11 0 -18 8 -18
19 0 10 -7 21 -15 25 -25 9 -17 29 10 24 16 -3 25 -1 25 7 0 14 -44 25 -96 25
-19 0 -34 4 -34 9 0 5 -9 11 -20 14 -11 3 -20 1 -20 -4 0 -5 8 -9 17 -9 12 0
14 -3 6 -11 -13 -13 -33 -4 -33 17 0 8 -10 14 -25 14 l-25 0 20 20 c12 12 25
18 30 15 5 -3 12 0 16 6 4 7 3 9 -4 5 -6 -3 -13 -2 -17 4 -6 10 -63 3 -81 -11
-6 -5 -19 0 -32 12 -17 16 -22 17 -22 5 0 -13 -4 -14 -27 -4 -16 7 -37 18 -48
26 l-20 14 20 -7 c11 -4 31 -9 45 -11 14 -2 17 -1 8 2 -25 8 -23 28 2 21 13
-3 20 0 20 8 0 20 20 29 33 16 8 -8 8 -11 -2 -11 -7 0 -10 -4 -7 -9 3 -5 15
-7 26 -4 11 3 35 -2 54 -11 19 -9 39 -16 46 -16 6 0 18 -7 26 -15 24 -24 34
-17 19 13 -18 33 0 44 21 13 9 -12 20 -19 25 -15 6 3 16 -1 22 -9 14 -18 47
-25 65 -13 7 4 19 3 27 -4 8 -6 19 -9 25 -5 5 3 10 2 10 -3 0 -6 17 -8 39 -5
52 7 63 -13 11 -22 -22 -4 -40 -11 -40 -17 0 -5 9 -6 21 -3 24 8 113 -31 104
-45 -3 -6 0 -10 7 -10 7 0 24 -3 37 -7 16 -4 22 -2 18 4 -9 15 11 21 57 17 21
-2 47 1 57 7 14 7 17 6 13 -4 -4 -10 3 -14 23 -13 15 0 39 -3 51 -8 23 -8 24
-8 5 11 -10 11 -21 18 -25 16 -12 -6 -38 9 -31 20 4 6 -2 8 -15 5 -16 -4 -22
-2 -22 9 0 10 -6 13 -17 8 -10 -3 -22 -7 -28 -8 -5 -1 -13 -6 -17 -12 -5 -7
-8 -7 -8 0 0 17 57 65 77 63 10 0 32 0 48 2 20 2 10 5 -29 10 -43 6 -71 4 -99
-6 -35 -12 -38 -12 -27 1 11 13 7 15 -25 15 -44 0 -101 25 -110 48 -3 9 -3 13
1 9 8 -8 65 22 77 41 5 7 12 10 18 7 9 -6 13 16 9 44 -1 13 1 13 14 2 9 -8 16
-21 16 -30 0 -14 -2 -14 -10 -1 -8 12 -10 13 -10 1 0 -8 -7 -22 -15 -30 -13
-15 -10 -17 28 -16 23 0 52 6 64 13 35 19 89 15 112 -9 17 -18 28 -21 66 -17
38 5 47 2 56 -13 5 -11 17 -19 27 -19 14 0 15 2 2 10 -23 14 -8 20 61 22 35 0
69 5 76 10 13 11 25 -5 29 -37 2 -18 -2 -22 -20 -18 -20 4 -20 4 -3 -11 11 -8
25 -12 32 -10 7 3 15 -4 18 -16 5 -18 12 -21 54 -19 26 1 54 4 61 7 18 6 15
22 -5 22 -15 0 -13 4 7 20 l25 19 -52 -6 c-55 -6 -67 3 -33 25 11 7 20 8 20 2
0 -6 9 -6 27 1 28 10 58 5 49 -9 -2 -4 4 -9 15 -9 21 -2 26 13 7 19 -9 3 -9 6
0 12 7 4 12 2 12 -3 0 -6 9 -11 21 -11 22 0 52 24 42 34 -4 3 -1 6 5 6 7 0 12
-7 12 -15 0 -8 7 -15 15 -15 8 0 15 6 15 14 0 8 6 17 13 19 6 3 2 6 -10 6 -13
1 -23 6 -23 12 0 7 10 9 25 7 17 -4 25 -1 25 8 0 8 -6 11 -15 8 -8 -4 -15 -1
-15 6 0 7 -6 5 -16 -5 -10 -9 -25 -14 -35 -12 -11 3 -22 1 -25 -4 -9 -15 -24
0 -17 19 5 14 3 15 -8 5 -19 -18 -36 -16 -41 5 -4 14 1 18 26 20 18 1 37 11
45 22 7 11 20 20 27 20 20 0 17 -18 -3 -23 -20 -5 -1 -8 77 -11 25 -1 50 -5
55 -8 6 -3 19 -2 30 3 19 7 19 8 -1 8 -12 1 -27 8 -34 16 -14 17 -11 18 58 15
60 -2 54 19 -15 53 -40 19 -59 24 -64 16 -4 -7 -14 -9 -24 -6 -9 4 -14 10 -12
14 3 5 -11 9 -32 10 -30 1 -32 0 -13 -8 23 -9 30 -29 10 -29 -9 0 -9 -3 0 -12
20 -20 14 -28 -18 -28 -28 0 -30 2 -20 20 7 14 7 20 0 20 -5 0 -10 -4 -10 -10
0 -16 -69 -24 -86 -9 -8 7 -37 14 -63 16 -27 1 -60 7 -75 12 -31 12 -37 42 -6
34 24 -6 27 12 5 33 -8 9 -15 11 -15 5 0 -19 -17 -12 -23 10 -4 14 -2 19 7 16
7 -3 13 1 13 9 0 8 -9 14 -19 14 -10 0 -18 -4 -18 -10 0 -5 -7 -7 -15 -3 -12
4 -10 8 10 19 21 11 30 11 46 1 10 -6 19 -17 19 -23 0 -6 7 -18 17 -25 15 -13
15 -12 5 8 -14 26 3 36 48 26 23 -4 30 -2 30 10 0 8 7 18 17 21 14 6 14 8 -3
22 -18 15 -18 15 -1 10 10 -3 28 -6 39 -6 11 0 22 -8 25 -18 7 -27 88 -45 109
-25 12 13 14 12 14 -3 0 -10 3 -14 8 -10 7 8 8 13 11 41 1 20 61 21 61 1 0 -8
-4 -18 -10 -21 -21 -13 -9 -26 23 -24 22 2 31 -1 29 -10 -1 -7 3 -11 10 -9 23
8 21 36 -3 40 -36 5 -46 32 -21 59 12 12 22 28 22 35 0 6 10 14 23 18 13 3 27
18 34 36 6 17 19 30 28 30 11 0 15 5 12 14 -3 8 -1 17 6 20 7 2 5 5 -5 5 -9 1
-19 -3 -22 -7 -7 -12 -129 -3 -137 10 -9 14 -29 1 -29 -18 0 -8 -5 -14 -11
-14 -5 0 -7 5 -3 11 5 8 1 8 -14 0 -15 -8 -23 -8 -28 0 -3 6 -15 9 -25 6 -10
-3 -22 -1 -25 4 -3 5 -10 7 -15 4 -5 -4 -14 5 -21 19 -14 32 -30 34 -23 4 4
-17 0 -27 -16 -36 -20 -13 -21 -12 -16 8 6 23 -1 51 -12 49 -3 -1 -16 -4 -29
-6z m-719 -364 c-15 -5 -15 -6 0 -12 27 -10 20 -28 -8 -21 -14 3 -25 2 -25 -4
0 -14 57 -20 71 -8 9 8 10 6 5 -7 -3 -10 -6 -23 -6 -28 0 -5 -20 -7 -45 -5
-26 3 -43 1 -40 -5 3 -5 -7 -7 -22 -5 -15 2 -20 1 -10 -1 44 -11 3 -40 -69
-49 -40 -4 -46 -3 -41 10 4 9 1 17 -6 17 -7 1 -31 3 -54 4 -23 2 -56 10 -72
18 -27 14 -30 13 -33 -2 -3 -13 -4 -14 -9 -1 -3 8 -2 31 2 50 4 22 7 27 8 13
0 -13 7 -23 15 -23 8 0 17 -6 20 -12 3 -9 8 -8 16 5 6 9 22 17 36 17 13 0 27
6 30 14 4 9 26 13 77 14 42 0 73 5 75 11 2 6 17 11 34 11 22 0 31 6 35 21 6
21 7 21 20 3 12 -16 11 -19 -4 -25z m304 27 c22 -1 38 -8 48 -23 14 -20 14
-22 0 -17 -8 3 -15 2 -15 -4 0 -5 -11 -13 -25 -16 -18 -5 -24 -12 -22 -29 1
-16 -3 -21 -16 -19 -10 2 -25 -2 -33 -9 -8 -6 -23 -9 -34 -6 -11 3 -20 2 -20
-2 0 -5 -13 -8 -30 -9 -20 0 -30 4 -30 14 0 10 12 14 38 14 l37 1 -27 17 c-32
19 -36 32 -10 32 16 1 16 1 0 14 -26 20 -22 26 17 26 27 0 38 -5 46 -23 8 -19
16 -22 45 -19 38 5 57 22 25 22 -12 0 -21 5 -21 10 0 6 -10 10 -22 10 -13 1
-36 7 -53 15 -29 15 -29 15 20 8 28 -4 65 -7 82 -7z"/>
<path d="M6014 5126 c-6 -7 -14 -18 -17 -26 -3 -10 -6 -7 -6 8 -1 21 -21 33
-21 12 0 -17 -39 -54 -47 -46 -5 4 1 14 11 22 16 11 17 17 8 26 -10 10 -14 10
-21 0 -5 -8 -17 -11 -33 -7 -21 5 -26 3 -25 -12 2 -13 -4 -17 -20 -15 -20 3
-22 -1 -19 -27 2 -22 -1 -32 -14 -36 -24 -8 -50 4 -44 20 3 7 0 16 -7 21 -7 4
-10 3 -5 -4 3 -6 -2 -15 -11 -21 -10 -6 -14 -11 -10 -11 12 0 -20 -30 -32 -30
-6 0 -11 -4 -11 -10 0 -5 7 -10 15 -10 8 0 15 5 15 10 0 6 7 10 15 10 8 0 15
-6 15 -13 0 -7 9 -13 20 -13 11 0 20 6 20 13 0 15 16 17 25 3 9 -15 27 -1 21
16 -3 8 -1 14 4 14 6 0 10 9 10 20 0 11 4 20 9 20 19 0 22 -21 7 -50 -8 -17
-10 -32 -5 -35 14 -9 58 27 65 53 7 25 24 30 24 6 0 -8 5 -12 10 -9 6 3 10 15
10 26 0 10 5 19 10 19 6 0 10 -10 10 -22 0 -17 3 -19 9 -9 5 7 14 10 20 6 9
-5 9 -11 -1 -22 -11 -14 -10 -15 12 -8 23 7 59 42 60 57 0 4 -12 3 -26 -2 -29
-12 -49 -4 -36 13 5 7 6 22 3 33 -5 17 -9 19 -17 10z"/>
<path d="M6654 4950 c-12 -5 -25 -14 -29 -20 -5 -8 -13 -6 -26 6 -10 9 -19 13
-20 8 -7 -58 -5 -75 10 -84 25 -15 -1 -11 -31 4 -24 13 -27 12 -31 -5 -5 -20
-27 -27 -27 -9 0 16 -27 12 -34 -5 -3 -8 -14 -15 -25 -15 -24 0 -36 -32 -21
-60 9 -16 8 -20 -5 -20 -21 0 -19 -13 6 -28 42 -27 78 10 44 45 -17 17 -16 34
3 41 7 2 12 -3 12 -12 0 -9 6 -16 14 -16 9 0 12 -7 9 -20 -4 -14 0 -20 11 -20
11 0 16 9 16 31 0 16 -4 28 -9 24 -5 -3 -12 -1 -16 5 -3 5 3 10 14 10 12 0 21
7 21 15 0 8 5 15 10 15 6 0 10 -11 10 -25 0 -27 -2 -27 112 -29 56 -1 68 1 71
16 3 11 0 18 -10 18 -9 0 -13 6 -9 15 3 8 -3 19 -14 25 -24 13 -40 13 -20 0
11 -7 6 -10 -21 -10 -47 0 -54 9 -28 36 13 14 17 24 10 29 -19 11 -12 24 17
27 15 2 23 6 17 9 -5 4 -20 3 -31 -1z"/>
<path d="M6360 4910 c0 -5 -7 -10 -15 -10 -9 0 -18 -7 -21 -15 -4 -8 -15 -15
-25 -15 -11 0 -22 -8 -25 -17 -12 -39 -22 -48 -48 -45 -31 4 -36 -17 -6 -25
26 -7 26 -33 1 -33 -11 0 -23 -9 -26 -20 -6 -19 -35 -25 -100 -21 -18 1 -19 1
-2 -9 9 -6 23 -8 30 -4 6 4 9 4 5 -1 -12 -13 12 -35 36 -34 17 1 17 2 4 6 -28
7 -21 26 7 21 14 -3 25 -1 25 4 0 5 13 7 30 3 16 -4 39 -4 49 0 20 6 20 7 1
42 -18 33 -18 37 -2 70 14 29 20 33 42 28 18 -4 21 -3 10 4 -12 8 -12 13 -2
23 10 10 17 10 34 -1 17 -11 22 -11 29 1 13 20 11 28 -6 22 -18 -7 -20 7 -3
24 9 9 8 12 -5 12 -9 0 -17 -4 -17 -10z"/>
<path d="M5344 4873 c-26 -3 -31 -9 -31 -29 0 -18 5 -24 22 -24 13 0 25 6 28
13 2 6 8 9 12 4 5 -4 3 -13 -3 -19 -17 -17 -15 -28 3 -22 8 4 15 1 15 -6 0 -9
-10 -11 -31 -6 -30 6 -30 5 -24 -24 6 -27 3 -31 -32 -47 -21 -10 -39 -21 -41
-25 -4 -8 -32 16 -32 27 0 4 7 5 15 1 9 -3 15 0 15 9 0 18 -21 20 -38 3 -15
-15 -16 -42 -2 -33 6 3 13 -1 16 -9 7 -17 34 -22 34 -7 0 5 22 12 48 16 46 6
48 8 44 34 -4 26 -2 28 30 23 18 -2 38 -11 45 -20 10 -12 15 -13 27 -3 8 7 25
11 37 9 26 -3 33 10 18 32 -8 11 -12 12 -16 3 -6 -16 -33 -17 -33 -3 0 6 10
15 23 19 19 8 20 10 5 16 -22 9 -51 -1 -43 -15 3 -5 -3 -10 -13 -10 -27 0 -55
46 -48 76 4 16 2 23 -6 22 -7 0 -27 -3 -44 -5z"/>
<path d="M5988 4117 c-9 -9 -25 -17 -35 -17 -23 -1 -55 -25 -45 -35 4 -4 -9
-5 -28 -2 -33 6 -34 6 -15 -9 19 -16 19 -16 -14 -10 -27 5 -32 3 -27 -9 4 -11
-1 -15 -19 -15 -13 0 -27 4 -30 10 -4 6 -15 2 -27 -10 -26 -24 -29 -24 -53 -6
-24 17 -50 10 -70 -20 -9 -14 -20 -22 -25 -19 -6 3 -7 -1 -4 -9 8 -20 28 -20
44 -1 18 22 37 18 56 -10 10 -16 26 -25 41 -25 22 0 24 2 12 16 -10 13 -10 17
2 24 10 7 15 5 17 -5 2 -9 8 -12 14 -9 6 4 16 0 22 -8 6 -8 21 -17 34 -20 18
-5 26 -1 34 18 9 18 20 24 47 26 42 2 81 5 99 7 6 0 12 7 12 14 0 17 -82 15
-88 -2 -6 -19 -22 -12 -22 9 0 16 7 20 36 20 21 0 33 4 29 10 -3 6 -19 10 -36
10 -21 0 -29 5 -29 18 0 13 7 17 28 16 38 -2 39 -3 22 -15 -13 -9 -13 -10 0
-7 8 3 17 15 20 29 6 23 6 23 14 4 5 -11 10 -26 12 -33 4 -21 14 -27 14 -10 0
9 7 21 16 29 13 10 17 10 25 -2 7 -12 9 -11 9 3 0 9 -5 20 -10 23 -6 4 -8 11
-5 16 4 5 1 9 -4 9 -6 0 -11 -7 -11 -15 0 -24 -38 -18 -42 7 -3 20 -4 21 -20
5z"/>
</g>
</svg>
