<?xml version="1.0" standalone="no"?>
<!DOCTYPE svg PUBLIC "-//W3C//DTD SVG 20010904//EN"
 "http://www.w3.org/TR/2001/REC-SVG-20010904/DTD/svg10.dtd">
<svg version="1.0" xmlns="http://www.w3.org/2000/svg"
 width="2591.000000pt" height="3857.000000pt" viewBox="0 0 2591.000000 3857.000000"
 preserveAspectRatio="xMidYMid meet">
<metadata>
Created by potrace 1.16, written by Peter Selinger 2001-2019
</metadata>
<g transform="translate(0.000000,3857.000000) scale(0.100000,-0.100000)"
fill="#000000" stroke="none">
<path d="M0 19285 l0 -19285 12955 0 12955 0 0 19285 0 19285 -12955 0 -12955
0 0 -19285z m25380 -465 c0 -497 -2 -906 -5 -909 -3 -2 -5 406 -5 909 0 502 3
911 5 908 3 -3 5 -412 5 -908z m-10 -2794 c1 -445 -2 -811 -5 -814 -3 -3 -5
363 -5 813 0 450 2 816 5 813 3 -2 5 -368 5 -812z m-2921 -6198 c5 -13 7 -26
4 -31 -2 -4 3 -10 11 -13 9 -3 13 -10 10 -15 -6 -10 9 -12 19 -2 4 3 -1 12
-11 19 -11 9 -13 13 -4 14 7 0 10 5 7 10 -3 6 1 10 10 10 9 0 13 5 10 10 -8
13 8 13 22 -1 8 -8 17 -8 31 0 22 12 39 0 27 -19 -4 -6 -1 -17 5 -25 7 -8 10
-15 6 -15 -3 0 2 -8 12 -18 9 -11 21 -17 25 -14 5 2 7 -9 5 -24 -2 -19 -10
-30 -22 -32 -11 -3 -16 0 -12 7 4 6 1 11 -6 11 -19 0 -35 -13 -36 -30 -1 -8
-4 -29 -8 -47 -5 -27 -8 -30 -20 -19 -15 16 -11 65 9 106 9 17 11 33 6 41 -6
9 -9 10 -9 2 0 -6 -9 -9 -20 -6 -25 7 -59 -5 -43 -15 8 -5 6 -15 -7 -32 l-19
-25 6 23 c5 19 2 23 -13 20 -11 -2 -20 4 -22 14 -2 13 1 16 12 12 12 -5 15 -2
9 12 -5 13 -3 15 7 9 8 -5 11 -3 8 6 -3 8 -15 13 -27 12 -12 -2 -20 1 -17 6 4
5 0 11 -6 14 -7 2 -10 8 -6 12 4 4 14 2 23 -5 9 -8 15 -8 15 -2 0 6 -4 14 -10
17 -13 8 -13 25 0 25 6 0 14 -10 19 -22z"/>
</g>
</svg>
